<?xml version="1.0" standalone="no"?>
<!DOCTYPE svg PUBLIC "-//W3C//DTD SVG 20010904//EN"
 "http://www.w3.org/TR/2001/REC-SVG-20010904/DTD/svg10.dtd">
<svg version="1.0" xmlns="http://www.w3.org/2000/svg"
 width="375.000000pt" height="385.000000pt" viewBox="0 0 375.000000 385.000000"
 preserveAspectRatio="xMidYMid meet">

<g transform="translate(0.000000,385.000000) scale(0.100000,-0.100000)"
fill="#000000" stroke="none">
<path d="M1536 3779 c-11 -27 -12 -37 -1 -53 7 -12 18 -64 25 -116 7 -52 16
-99 20 -105 13 -17 42 -244 36 -270 -10 -40 -28 -18 -24 28 3 29 -1 46 -13 58
-11 11 -19 41 -24 86 -3 37 -10 76 -15 85 -6 10 -10 29 -10 42 0 14 -4 28 -10
31 -5 3 -10 15 -10 25 0 11 -5 42 -11 70 l-11 50 -20 -25 c-17 -22 -19 -30 -9
-48 6 -12 17 -52 25 -89 l14 -68 -27 0 c-26 0 -28 4 -39 61 -6 34 -14 64 -17
67 -10 11 -35 -33 -30 -53 17 -61 17 -82 1 -88 -12 -5 -17 2 -22 31 -3 21 -14
49 -24 61 l-17 24 -33 -37 c-37 -40 -48 -44 -56 -18 -17 52 -27 69 -45 80 -28
18 -35 8 -17 -20 8 -13 22 -41 30 -64 16 -38 15 -41 -3 -52 -10 -7 -21 -12
-23 -12 -2 0 -23 39 -47 86 -32 64 -40 87 -30 93 9 6 3 14 -21 29 l-33 21 -12
-32 c-17 -46 -16 -59 5 -53 13 4 24 -8 47 -57 17 -34 33 -64 37 -67 3 -3 9
-16 13 -30 4 -20 1 -27 -19 -36 -23 -11 -27 -8 -50 25 -14 20 -30 49 -35 64
-12 32 -26 29 -33 -8 -3 -16 3 -37 18 -59 13 -19 24 -39 24 -44 0 -5 9 -21 21
-36 20 -25 20 -56 1 -56 -5 0 -15 12 -23 28 -7 15 -22 39 -33 54 l-20 28 -14
-31 c-14 -28 -13 -32 7 -59 11 -16 21 -33 21 -38 0 -11 -40 -24 -40 -14 -1 4
-13 22 -29 40 -22 26 -32 31 -49 25 -21 -8 -20 -9 14 -52 19 -25 33 -50 30
-57 -7 -19 33 -64 57 -64 34 1 56 23 66 66 6 24 9 30 10 16 1 -29 28 -39 49
-18 13 12 13 19 4 28 -16 16 -15 43 1 60 7 7 19 32 26 56 8 23 16 40 18 38 7
-7 -29 -106 -38 -106 -5 0 -9 -9 -9 -20 0 -36 24 -20 50 32 14 29 36 59 50 67
23 14 23 13 -3 -12 -16 -15 -39 -51 -51 -80 -24 -53 -47 -79 -78 -90 -32 -11
-22 -50 18 -72 31 -17 114 -103 114 -119 0 -3 29 -44 65 -90 36 -46 65 -87 65
-91 0 -4 12 -21 26 -38 l26 -31 -24 -18 -23 -18 -78 82 c-81 85 -80 84 -61
147 7 24 6 24 -41 18 -46 -7 -47 -6 -32 11 31 34 21 63 -38 118 -30 28 -55 48
-55 45 0 -10 -54 -31 -59 -23 -3 4 -15 12 -26 18 -11 6 -25 20 -30 30 -25 45
-55 89 -62 89 -4 0 -23 17 -41 38 -26 27 -42 37 -65 37 l-31 0 39 -42 c53 -57
67 -82 52 -97 -19 -19 -31 -13 -86 43 -46 47 -52 57 -41 70 11 14 7 16 -29 16
l-41 0 0 -41 c0 -33 3 -39 13 -31 10 9 26 -1 67 -43 51 -51 53 -56 38 -72 -16
-15 -20 -14 -62 21 -46 37 -46 37 -46 12 0 -38 10 -57 38 -67 l26 -10 -23 -22
c-22 -22 -22 -22 -37 -3 -13 19 -14 18 -14 -15 0 -19 4 -39 10 -45 5 -5 5 -15
1 -23 -6 -10 -13 -10 -29 -2 -15 8 -23 7 -33 -5 -11 -14 -9 -19 14 -36 22 -16
26 -25 21 -46 -4 -15 -8 -28 -9 -30 -3 -3 -68 31 -75 39 -17 21 -70 37 -96 30
l-29 -7 46 -27 c25 -15 50 -27 56 -27 5 0 31 -14 56 -31 34 -22 47 -37 47 -55
0 -23 -3 -22 -114 34 -105 52 -114 59 -109 81 6 23 4 24 -27 18 -18 -4 -36 -7
-41 -7 -13 0 -11 -16 7 -58 14 -34 16 -36 29 -19 7 10 15 14 16 10 2 -4 53
-33 113 -63 59 -30 116 -59 127 -65 10 -5 19 -21 21 -35 3 -21 10 -26 43 -31
l40 -6 -34 -2 c-25 -1 -43 6 -63 26 -25 24 -30 25 -52 13 -14 -7 -30 -26 -35
-43 -8 -22 -14 -27 -24 -19 -20 17 -108 44 -115 36 -4 -4 -1 -9 6 -11 6 -3 12
-11 12 -18 0 -7 6 -16 13 -18 6 -3 -6 -6 -27 -6 l-40 -1 30 -31 29 -32 -31 6
c-36 7 -76 -15 -59 -32 6 -5 46 -18 90 -27 l80 -18 253 -239 c139 -132 251
-241 250 -242 -2 -1 -24 -5 -50 -8 -52 -7 -61 3 -36 43 12 18 3 29 -92 120
-58 54 -112 99 -121 99 -18 1 -52 35 -43 44 3 3 3 11 -1 17 -6 9 -9 9 -15 0
-6 -9 -13 -4 -26 16 -10 16 -36 48 -59 70 -36 37 -48 43 -115 54 -41 7 -77 16
-80 20 -3 4 -24 11 -47 15 -35 5 -43 4 -43 -8 0 -8 -8 -18 -18 -22 -16 -6 -15
-8 3 -15 11 -4 47 -11 80 -15 33 -4 65 -11 70 -15 6 -5 25 -10 43 -12 29 -3
31 -5 20 -19 -12 -16 -22 -15 -128 2 -63 10 -116 18 -118 18 -2 1 -2 8 0 17 4
25 -13 26 -51 3 l-34 -20 33 -34 c30 -31 34 -33 46 -17 10 14 15 15 25 5 7 -7
27 -13 43 -13 17 0 48 -3 68 -6 32 -6 38 -10 38 -32 l0 -25 -87 7 -87 7 18
-20 c13 -14 31 -21 57 -21 21 0 41 -4 44 -10 3 -5 15 -10 27 -10 14 0 18 -5
14 -16 -3 -9 -6 -20 -6 -25 0 -5 -16 -9 -35 -9 -33 0 -34 -1 -23 -20 7 -11 23
-20 35 -20 30 0 32 -39 3 -47 -10 -3 -26 -16 -35 -29 -15 -24 -15 -24 15 -24
27 0 31 -3 28 -22 -3 -19 -10 -23 -48 -26 -37 -2 -47 -8 -57 -28 l-12 -25 69
7 c64 6 68 5 75 -16 4 -12 5 -23 3 -25 -1 -2 -41 -9 -87 -15 -62 -8 -86 -8
-91 0 -4 7 -17 -2 -33 -23 -19 -26 -23 -37 -14 -46 6 -6 15 -11 20 -11 6 0 16
-8 23 -17 13 -17 14 -16 20 5 7 24 10 25 123 43 69 11 76 10 88 -7 13 -17 12
-19 -14 -22 -15 -2 -32 -7 -38 -12 -5 -4 -36 -11 -68 -15 -57 -6 -58 -7 -41
-26 17 -19 54 -25 68 -11 11 11 154 29 167 21 21 -12 1 -25 -58 -38 -96 -21
-94 -20 -82 -43 9 -17 17 -19 47 -13 21 4 42 10 47 15 6 4 23 10 40 14 28 7
29 7 13 -11 -9 -10 -18 -27 -19 -37 -3 -13 -19 -23 -50 -32 -42 -12 -46 -16
-41 -39 5 -29 10 -30 40 -9 26 18 27 18 36 -12 8 -25 -2 -34 -66 -60 -33 -13
-48 -25 -51 -41 -2 -13 -1 -23 3 -23 4 0 37 16 75 36 54 29 69 33 76 22 14
-22 11 -27 -46 -63 -69 -45 -105 -59 -105 -42 0 6 -11 -6 -24 -28 -14 -22 -24
-40 -23 -41 1 -1 19 -4 39 -8 29 -5 37 -4 33 6 -3 8 6 18 22 25 40 17 107 57
111 66 7 14 27 7 40 -14 15 -24 6 -35 -65 -69 -24 -11 -43 -24 -43 -29 0 -20
53 -22 70 -2 3 3 19 14 37 23 31 16 32 16 39 -4 5 -15 0 -26 -17 -39 -19 -14
-22 -20 -11 -31 10 -10 18 -9 42 5 26 16 30 16 30 3 0 -9 9 -21 20 -28 17 -11
18 -14 4 -29 -14 -15 -10 -49 5 -49 4 0 18 11 31 25 16 17 27 22 35 15 21 -17
133 -24 150 -10 22 19 31 4 15 -26 -12 -22 -12 -27 0 -34 8 -6 11 -10 5 -10
-5 0 -21 9 -35 20 -14 11 -34 20 -45 20 -22 0 -168 -123 -173 -146 -7 -28 69
-130 152 -207 46 -42 88 -77 92 -77 10 0 77 -45 130 -87 23 -18 44 -33 48 -33
4 0 28 -22 54 -48 26 -27 55 -51 64 -55 9 -3 22 -16 28 -28 12 -21 11 -21 -17
-6 -15 8 -68 35 -118 58 -49 24 -124 66 -165 94 -41 28 -87 56 -101 63 -74 38
-357 321 -358 359 -1 7 -10 17 -21 23 -11 6 -20 16 -20 22 0 5 -13 26 -30 45
-16 18 -30 42 -30 52 0 11 -15 42 -34 70 -19 27 -36 56 -39 63 -3 7 -6 -9 -6
-36 -1 -31 5 -56 14 -66 9 -10 19 -35 22 -56 3 -22 9 -41 13 -44 4 -3 10 -23
14 -44 7 -35 6 -37 -8 -23 -9 8 -16 20 -16 25 0 16 -46 52 -66 52 -22 0 -55
20 -96 58 -24 22 -28 23 -28 8 0 -9 24 -41 54 -69 58 -56 76 -84 76 -116 0
-21 58 -111 72 -111 4 0 8 -5 8 -11 0 -29 320 -339 349 -339 6 0 11 -4 11 -8
0 -9 123 -94 208 -145 85 -50 206 -106 257 -117 28 -6 59 -16 70 -21 42 -18
111 -39 133 -39 12 0 30 -4 40 -10 9 -5 58 -14 107 -20 50 -6 104 -13 120 -16
l30 -6 -3 80 c-3 50 1 88 8 102 10 18 9 24 -1 31 -8 5 -18 8 -24 8 -5 0 -4 -3
3 -6 21 -8 13 -23 -13 -23 -14 0 -25 5 -25 10 0 6 -16 10 -37 10 -35 0 -36 0
-18 20 22 25 33 25 59 2 21 -17 21 -17 4 4 -10 11 -18 24 -18 27 0 11 68 8 75
-3 3 -5 17 -10 31 -10 23 0 24 -2 24 -75 0 -81 9 -94 71 -109 22 -5 25 -10 21
-36 -4 -29 -5 -30 -46 -23 -48 7 -58 18 -51 58 5 29 5 29 -5 5 -15 -34 2 -70
33 -70 20 0 22 -4 19 -39 -5 -46 5 -54 64 -54 50 0 72 14 76 50 2 14 12 31 23
37 41 23 60 69 33 78 -9 3 -14 34 -16 91 l-4 87 61 0 c34 0 78 7 98 15 55 23
102 20 112 -8 14 -35 -26 -41 -64 -8 l-30 26 23 -26 c20 -23 21 -27 7 -33 -9
-3 -37 -6 -62 -6 l-45 0 23 20 c23 19 22 19 -14 -1 -20 -11 -40 -26 -43 -33
-4 -7 -2 -6 7 1 7 7 16 13 20 13 4 0 7 -45 6 -100 l-2 -100 40 4 c22 3 66 8
97 11 32 4 60 10 63 15 3 4 29 11 58 15 81 10 160 27 182 41 11 6 47 20 80 30
33 10 62 21 65 24 3 4 26 15 52 26 27 10 48 22 48 27 0 4 6 7 14 7 8 0 44 20
80 45 37 25 68 45 71 45 8 0 83 55 153 113 38 31 73 57 77 57 9 0 224 220 269
275 16 20 34 50 40 68 17 47 30 67 74 115 49 52 84 124 80 161 -3 24 -5 23
-36 -25 -22 -35 -51 -63 -93 -89 -33 -20 -70 -51 -81 -69 -11 -17 -18 -24 -15
-15 3 9 9 38 12 65 4 27 17 59 28 72 15 16 22 40 25 85 4 58 3 61 -12 42 -8
-11 -16 -23 -16 -26 0 -3 -20 -37 -45 -75 -25 -37 -45 -73 -45 -79 0 -29 -289
-365 -314 -365 -6 0 -17 -9 -24 -20 -7 -11 -17 -20 -23 -20 -5 0 -40 -24 -77
-53 -89 -71 -324 -189 -375 -189 -21 -1 -44 5 -50 11 -14 15 0 25 83 58 l55
22 -50 -44 c-27 -25 -47 -45 -43 -45 3 0 45 35 93 79 48 43 104 87 124 98 20
11 78 52 128 91 49 40 95 72 100 72 11 0 63 52 63 63 0 4 16 30 36 58 19 28
34 54 32 59 -2 4 -38 40 -81 80 l-78 73 -55 -28 c-31 -16 -61 -37 -67 -47 -7
-10 -17 -18 -23 -18 -6 0 -17 -7 -24 -15 -23 -27 -35 11 -60 178 -13 86 -26
157 -30 157 -4 0 -10 26 -14 58 -4 31 -11 81 -15 110 -5 36 -4 51 3 49 6 -2
13 -14 14 -28 2 -13 8 -28 12 -34 4 -5 11 -40 15 -77 4 -38 11 -68 16 -68 5 0
9 6 9 14 0 8 6 21 13 28 7 7 19 28 26 46 8 18 15 31 17 29 7 -6 -27 -81 -40
-89 -18 -12 -13 -219 6 -247 15 -21 15 -21 32 22 9 23 16 54 16 68 0 14 4 29
9 35 4 5 14 31 21 57 7 26 15 46 17 43 2 -2 -3 -28 -11 -57 -20 -65 -20 -75
-1 -59 8 7 15 18 15 24 0 6 9 17 20 24 11 7 20 18 20 26 0 7 8 20 18 27 15 12
16 12 6 -1 -20 -27 -26 -53 -11 -47 8 3 -10 -19 -39 -48 -32 -32 -64 -77 -79
-111 -26 -60 -27 -84 -1 -84 22 0 89 32 106 51 8 9 35 22 60 27 39 10 47 9 65
-8 12 -11 24 -20 27 -20 13 0 18 33 6 47 -9 11 -6 19 14 39 22 23 28 24 46 13
18 -11 24 -11 34 -1 11 11 10 16 -4 26 -17 12 -17 14 2 31 18 16 21 16 53 -4
33 -20 67 -20 67 0 0 5 -16 17 -35 26 -40 19 -51 41 -31 61 13 13 21 11 64
-17 27 -17 54 -31 61 -31 8 0 11 -7 7 -16 -5 -13 -2 -15 16 -10 13 3 31 6 41
6 17 0 17 3 -4 40 -13 22 -25 36 -29 31 -10 -17 -115 43 -118 68 -2 12 -8 18
-14 15 -6 -4 -8 -2 -4 4 7 11 66 7 75 -5 5 -7 56 -33 65 -33 2 0 1 11 -1 24
-4 17 -17 29 -50 41 -31 12 -43 21 -39 32 3 8 6 19 6 25 0 6 11 7 26 4 21 -6
25 -4 21 7 -3 8 -1 19 5 25 6 6 1 12 -16 16 -22 5 -25 11 -20 34 5 26 5 26
-10 8 -9 -11 -19 -16 -23 -12 -4 4 0 12 10 17 9 6 17 18 17 27 1 16 1 16 11
-1 12 -21 42 -22 60 -1 10 13 10 17 -2 25 -8 5 -22 9 -32 9 -12 0 -17 6 -15
18 4 20 55 29 71 13 17 -17 52 -13 71 8 18 19 17 20 -41 26 -67 8 -108 30 -83
45 33 21 157 1 181 -28 l16 -21 27 28 26 27 -30 34 c-16 19 -29 29 -30 22 0
-10 -14 -11 -62 -6 -70 7 -88 17 -88 46 0 18 5 19 60 13 l60 -7 -11 26 c-10
21 -19 26 -51 26 -34 0 -38 3 -38 25 0 18 5 25 19 25 17 0 18 3 8 25 -7 14
-15 25 -19 25 -16 0 -7 42 13 63 l20 22 -27 5 c-14 3 -33 15 -42 28 -13 20
-13 22 6 22 12 0 24 5 27 10 3 6 22 10 41 10 38 0 74 15 74 31 0 6 -32 7 -89
3 -83 -6 -90 -5 -100 14 -6 11 -11 23 -11 25 0 2 37 8 83 12 45 4 88 11 95 17
9 8 18 6 31 -6 18 -16 20 -15 44 15 27 34 26 54 -1 62 -9 3 -25 8 -34 12 -14
5 -18 2 -18 -13 0 -25 -8 -27 -133 -43 -88 -11 -99 -11 -115 4 -15 16 -14 17
20 17 20 0 39 4 42 9 3 5 32 12 63 16 32 3 68 9 81 12 25 6 30 23 7 23 -8 0
-15 7 -15 16 0 13 -7 15 -37 9 -21 -4 -42 -10 -48 -15 -5 -4 -43 -13 -83 -20
-65 -11 -78 -17 -114 -53 l-41 -41 25 -46 c19 -34 27 -66 32 -129 3 -47 10
-89 16 -95 12 -12 13 -56 2 -56 -10 0 -32 136 -32 193 0 34 -36 117 -50 117
-3 0 -24 -18 -45 -40 -21 -22 -45 -40 -52 -40 -26 0 -36 -41 -28 -124 9 -92
13 -317 5 -309 -3 2 -5 64 -5 136 0 95 -3 131 -12 134 -8 3 -13 25 -13 60 l0
55 -84 -87 c-55 -57 -86 -97 -88 -114 -3 -24 -6 -26 -42 -21 l-39 5 257 244
c209 198 263 245 289 247 18 2 55 9 83 16 48 12 51 15 43 36 -8 20 -14 23 -39
17 -37 -8 -39 6 -4 34 l27 21 -42 0 -42 0 21 22 c20 22 26 38 13 38 -21 -1
-86 -29 -93 -41 -7 -10 -14 -11 -32 -2 -13 6 -120 21 -238 34 -118 12 -219 26
-224 30 -5 5 1 12 15 17 23 9 130 -5 154 -19 18 -12 130 -19 144 -10 11 7 13
27 8 92 -4 46 -9 98 -12 114 -2 17 2 5 10 -25 9 -30 14 -85 13 -122 -3 -72 0
-78 49 -78 l26 0 -6 80 c-3 43 -12 93 -21 111 -14 29 -14 30 1 18 15 -12 16
-12 9 6 -5 11 -10 31 -13 45 -2 14 3 7 11 -15 9 -22 16 -50 16 -62 0 -13 4
-23 9 -23 6 0 11 -24 13 -52 3 -50 4 -51 15 -27 6 15 20 29 30 33 15 5 16 4 3
-7 -20 -16 -50 -71 -50 -90 0 -33 65 -37 74 -4 4 17 19 27 60 40 43 14 55 23
60 43 4 15 5 29 2 32 -3 3 -33 -8 -66 -25 l-60 -30 0 28 c0 25 8 32 66 59 48
23 68 29 78 21 10 -8 16 -2 25 30 7 23 11 42 9 44 -2 2 -21 6 -42 10 -37 7
-39 7 -33 -16 4 -21 -2 -27 -49 -51 l-55 -27 -8 22 c-7 19 -2 26 43 51 l51 29
-29 8 c-19 5 -38 3 -57 -6 -39 -20 -41 -20 -69 23 -59 90 -86 156 -82 202 l4
45 -19 -23 c-13 -17 -30 -24 -61 -26 -23 -1 -42 0 -42 4 0 15 108 111 114 101
14 -23 26 -10 26 29 l0 40 -46 0 c-41 0 -45 -2 -34 -15 11 -14 6 -23 -35 -65
-39 -39 -52 -47 -69 -40 -30 11 -22 37 26 85 l39 40 -26 3 c-28 4 -85 -39 -85
-64 0 -16 -23 -24 -49 -17 -26 7 -26 7 4 47 l25 34 -22 6 c-17 4 -28 0 -40
-17 -51 -68 -45 -64 -64 -45 -15 15 -15 18 11 52 25 32 26 38 13 49 -9 7 -18
19 -21 27 -3 11 -8 7 -16 -12 -6 -16 -15 -28 -20 -28 -5 0 -11 -9 -14 -20 -5
-21 -33 -37 -45 -26 -3 4 -1 15 6 24 7 9 19 32 27 50 9 17 19 32 23 32 14 0
28 54 22 85 l-6 30 -18 -30 c-10 -16 -27 -42 -37 -57 -11 -15 -19 -30 -19 -34
0 -3 -16 -33 -36 -65 -26 -44 -41 -59 -58 -59 -12 0 -25 2 -28 5 -10 11 146
310 162 310 17 0 21 12 10 40 -4 11 -9 25 -11 32 -3 9 -14 6 -37 -9 -24 -15
-30 -23 -21 -29 10 -6 -7 -49 -71 -176 -46 -92 -85 -162 -88 -155 -2 7 -7 10
-12 7 -8 -5 2 45 15 76 3 10 1 20 -4 24 -15 8 -4 25 16 25 10 0 13 -6 9 -16
-3 -9 -2 -12 5 -9 5 4 7 15 4 25 -3 11 0 20 10 24 11 4 14 13 10 25 -3 10 6
40 20 70 15 28 25 56 23 61 -6 18 -59 -41 -65 -71 -5 -27 -23 -42 -23 -19 0 6
-7 10 -15 10 -8 0 -25 10 -37 22 l-22 22 -10 -30 c-13 -34 -38 -74 -47 -74
-14 0 -18 31 -8 57 7 20 7 34 -2 50 -18 33 -28 28 -35 -14 -5 -33 -10 -38 -33
-40 -25 -2 -27 1 -23 28 2 16 8 29 12 29 4 0 10 16 13 36 5 27 1 43 -13 61
l-18 23 -11 -50 c-6 -28 -11 -60 -11 -71 0 -16 -5 -18 -27 -14 -25 5 -25 4 -6
-4 25 -11 40 -48 24 -64 -7 -7 -14 -7 -24 1 -8 7 -16 10 -18 8 -5 -6 -3 45 6
128 5 44 14 75 25 86 17 17 17 19 -3 49 l-20 32 -28 -27 c-16 -15 -25 -30 -19
-34 13 -8 -18 -209 -37 -239 -11 -18 -13 -26 -5 -29 16 -5 14 -33 -3 -56 -8
-11 -15 -38 -16 -60 l0 -41 -16 38 c-14 35 -14 53 1 209 9 94 15 172 14 174
-2 1 -13 -6 -26 -16 -20 -17 -23 -30 -29 -136 -6 -115 -6 -116 -24 -93 -20 26
-25 74 -9 84 6 3 10 26 10 51 0 40 -2 44 -25 44 -21 0 -25 -5 -25 -31 0 -35
-16 -31 -32 9 l-10 27 -16 -32 c-20 -41 -32 -42 -32 -3 0 25 -4 30 -25 30 -22
0 -25 -4 -25 -39 0 -22 5 -43 10 -46 16 -10 11 -68 -9 -94 -18 -23 -18 -22
-24 92 -5 100 -9 119 -27 137 -12 12 -24 20 -26 18 -7 -8 20 -268 28 -268 15
0 8 -76 -11 -113 -17 -34 -19 -35 -24 -14 -3 12 -9 49 -12 82 -4 33 -11 65
-15 70 -4 6 -13 53 -19 105 -7 52 -15 105 -18 118 -4 16 -1 22 12 22 21 0 12
13 -25 40 l-30 22 -14 -33z m360 -299 c17 -36 39 -85 50 -110 10 -25 21 -47
24 -50 3 -3 16 -30 30 -60 14 -30 28 -56 33 -58 4 -2 7 -11 7 -19 0 -14 45
-112 165 -358 19 -38 32 -71 30 -73 -2 -3 -29 7 -59 22 -48 24 -57 33 -66 67
-6 21 -14 39 -18 39 -4 0 -18 27 -30 60 -21 53 -42 78 -42 50 0 -5 4 -10 9
-10 5 0 19 -27 31 -60 12 -33 26 -60 30 -60 4 0 10 -11 12 -25 3 -14 1 -25 -5
-25 -15 0 -91 23 -102 31 -5 4 -43 10 -83 14 l-73 7 1 267 c1 321 2 301 -11
278 -6 -10 -8 -25 -5 -33 3 -8 2 -12 -4 -9 -5 3 -23 -23 -39 -57 -17 -35 -37
-74 -45 -88 -19 -33 -119 -245 -136 -288 -11 -29 -11 -34 6 -47 11 -8 14 -15
9 -15 -6 0 -17 6 -23 12 -10 10 -15 10 -22 -2 -13 -20 -12 -30 1 -30 5 0 7 5
4 10 -11 17 22 11 46 -9 27 -22 18 -41 -11 -23 -16 9 -18 9 -14 -2 3 -9 -4
-15 -20 -18 -14 -3 -26 -1 -26 3 0 5 5 9 10 9 6 0 10 5 10 10 0 19 -17 10 -28
-15 -15 -33 -15 -35 3 -35 8 0 15 4 15 8 0 9 125 42 162 42 15 0 30 5 33 10 3
6 39 10 80 10 41 0 77 -4 80 -10 3 -5 20 -10 36 -10 39 0 159 -32 159 -42 0
-4 6 -8 14 -8 24 0 120 -47 139 -68 11 -11 24 -19 30 -18 7 2 9 1 6 -1 -3 -2
20 -31 52 -64 33 -33 59 -66 59 -74 0 -8 9 -19 20 -25 11 -6 20 -16 20 -23 0
-7 14 -31 30 -55 16 -24 34 -69 41 -100 6 -31 15 -61 19 -67 4 -5 13 -46 19
-89 12 -86 -1 -245 -22 -258 -14 -9 -14 -143 0 -160 6 -7 20 -80 32 -163 13
-82 26 -159 31 -170 5 -11 16 -69 25 -130 9 -60 20 -119 25 -130 8 -19 40
-209 40 -239 0 -12 -5 -12 -30 -3 -16 6 -30 15 -30 19 0 4 -4 8 -9 8 -6 0 -38
17 -73 37 -75 45 -203 113 -275 149 -29 14 -53 30 -53 35 0 5 -5 9 -12 9 -6 0
-57 25 -112 57 -56 31 -122 67 -148 81 -27 14 -48 29 -48 33 0 23 131 3 150
-22 7 -10 82 -40 87 -35 3 2 -12 10 -31 17 -20 7 -36 16 -36 20 0 4 -16 13
-36 19 l-36 12 25 13 c13 6 50 20 81 30 32 10 63 23 69 29 7 6 31 20 55 30
l43 19 29 -34 c16 -19 35 -45 42 -59 7 -14 35 -54 62 -90 63 -83 69 -89 60
-67 -9 25 21 12 41 -19 8 -13 22 -24 30 -24 13 0 35 -29 35 -45 0 -3 -20 10
-44 30 -33 27 -43 31 -40 17 3 -10 15 -30 27 -43 12 -14 18 -19 13 -12 -15 22
1 26 28 6 21 -15 24 -24 21 -59 -3 -35 -1 -43 16 -47 20 -5 26 11 10 29 -4 5
-19 74 -31 154 -13 80 -26 147 -30 150 -3 3 -15 58 -25 123 -14 93 -20 115
-31 106 -9 -8 -16 -5 -24 11 -11 20 -10 21 9 15 18 -5 21 -2 21 19 0 14 -4 28
-10 31 -13 8 -13 65 0 65 10 0 43 70 36 77 -2 2 -9 -11 -17 -29 -7 -18 -19
-37 -26 -41 -7 -4 -13 -14 -13 -21 0 -7 -18 -36 -40 -64 -22 -27 -40 -52 -40
-55 0 -8 -69 -77 -78 -77 -4 0 -19 -11 -32 -25 -13 -13 -43 -32 -67 -41 -23
-9 -43 -20 -43 -24 0 -4 -33 -17 -72 -30 -40 -12 -79 -27 -87 -33 -19 -16
-323 -15 -329 1 -2 7 -9 12 -16 12 -21 0 -141 41 -146 50 -3 5 -26 17 -50 28
-25 11 -52 27 -59 36 -8 9 -24 21 -35 27 -19 8 -18 8 2 -7 30 -22 28 -31 -18
-89 -22 -27 -40 -55 -40 -62 0 -7 -8 -17 -17 -22 -14 -8 -15 -10 -3 -11 8 0
20 -10 25 -22 7 -15 17 -22 30 -20 16 2 17 1 5 -7 -12 -8 -11 -13 8 -34 26
-27 28 -52 6 -61 -18 -7 -34 0 -34 16 0 5 -14 28 -31 50 -17 21 -29 41 -27 43
7 8 48 -26 48 -39 0 -8 7 -19 15 -26 26 -21 -11 43 -38 66 l-24 21 -34 -48
c-19 -27 -44 -60 -56 -74 l-23 -26 21 -28 c12 -16 19 -35 17 -43 -3 -8 -12 -2
-24 18 l-19 32 -30 -39 c-16 -21 -30 -37 -33 -35 -5 6 19 159 28 171 4 6 18
71 30 145 13 74 26 140 30 145 4 6 11 33 14 60 11 78 15 88 32 75 10 -9 9 -3
-3 21 -23 47 -63 106 -63 93 0 -6 9 -23 21 -38 18 -23 20 -35 14 -84 -4 -31
-10 -61 -14 -67 -4 -5 -18 -73 -31 -150 -13 -77 -27 -142 -30 -145 -4 -3 -15
-57 -25 -120 -10 -63 -22 -120 -27 -127 -5 -7 -7 -17 -4 -22 10 -15 38 -1 32
16 -3 8 -1 11 4 8 12 -7 120 34 120 46 0 4 37 26 83 49 45 22 114 59 152 80
39 22 90 49 115 61 25 12 47 25 50 28 12 16 65 31 105 31 84 0 72 -11 -125
-112 -25 -13 -47 -25 -50 -28 -3 -3 -25 -16 -50 -29 -25 -13 -72 -38 -105 -56
-216 -115 -277 -147 -338 -178 l-67 -35 6 51 c4 29 10 57 14 62 4 6 13 44 19
85 26 166 33 206 41 225 5 11 16 72 25 135 9 63 20 124 25 135 5 11 15 60 23
110 13 80 13 98 -2 170 -8 44 -20 83 -25 87 -14 10 -12 206 2 220 18 18 15 58
-4 58 -10 0 -14 6 -11 14 3 8 -2 20 -11 28 -11 9 -14 9 -8 1 5 -9 2 -11 -9 -6
-13 4 -14 8 -4 14 7 4 17 5 21 2 5 -2 15 0 23 7 9 7 15 8 20 0 3 -5 -2 -10
-12 -10 -11 0 -14 -3 -7 -8 6 -4 13 -14 16 -22 2 -8 10 13 17 47 6 35 17 68
24 76 16 17 36 52 48 85 21 55 -21 -12 -62 -100 -15 -31 -30 -48 -45 -51 -13
-2 -21 -1 -19 3 3 4 -9 10 -26 14 -17 3 -46 13 -65 22 -19 9 -37 14 -41 11 -7
-7 37 -46 52 -47 6 0 3 5 -5 10 -9 6 -10 10 -3 10 6 0 14 -4 18 -10 3 -5 12
-7 19 -4 8 3 17 0 21 -6 4 -7 -2 -9 -19 -6 -34 6 -33 -7 2 -29 15 -10 35 -27
44 -39 22 -26 24 -71 4 -63 -22 9 -28 -5 -10 -24 9 -10 14 -23 12 -29 -2 -6
-45 28 -97 75 -87 80 -120 105 -91 70 10 -12 10 -15 -1 -15 -15 0 -109 89
-109 103 0 5 7 7 15 3 25 -9 17 1 -17 23 -28 17 -30 21 -12 21 11 0 37 -16 57
-35 31 -30 40 -34 56 -25 14 7 22 7 27 -2 4 -6 3 -8 -4 -4 -6 3 -13 3 -16 -2
-6 -10 88 -111 127 -136 35 -21 47 -14 22 14 -21 23 -3 28 25 8 9 -7 2 0 -14
15 -17 16 -47 43 -66 61 -19 18 -43 36 -54 40 -14 5 -16 9 -7 20 9 10 -2 17
-57 31 -37 10 -69 21 -72 24 -3 4 -40 15 -82 25 -124 31 -109 40 101 60 102
10 191 22 196 26 6 4 44 10 85 14 41 3 97 9 123 12 l48 7 -21 -39 c-12 -22
-15 -30 -8 -20 7 11 21 28 31 38 10 11 16 22 14 25 -7 7 -361 -29 -367 -37 -3
-4 -66 -12 -140 -19 -74 -7 -150 -16 -168 -20 l-33 -6 253 -245 c215 -208 255
-251 264 -285 5 -22 14 -48 18 -58 18 -38 -6 -27 -72 34 -261 241 -630 604
-614 606 9 1 89 9 177 18 88 9 169 20 180 25 11 5 92 16 180 25 88 9 185 19
215 22 30 3 60 9 65 14 6 4 39 9 74 11 49 2 69 8 88 26 14 13 43 30 64 39 22
8 38 17 36 19 -2 3 -20 -3 -40 -11 -47 -20 -47 -20 -34 15 6 17 15 30 19 30 4
0 8 4 8 9 0 10 49 118 120 266 113 233 150 315 150 330 0 8 4 15 8 15 4 0 16
23 27 50 11 28 22 50 25 50 3 0 12 16 19 36 l13 36 17 -29 c9 -15 30 -57 47
-93z m341 34 c7 -19 -14 -35 -42 -32 -11 2 -24 -5 -30 -16 -5 -10 -19 -22 -31
-26 -18 -7 -20 -5 -16 21 3 23 10 29 28 29 12 0 27 6 31 14 7 12 27 23 46 25
4 1 10 -6 14 -15z m173 1 c0 -8 -5 -15 -11 -15 -5 0 -8 -4 -5 -8 3 -5 19 -7
36 -4 18 3 30 0 30 -7 0 -7 -9 -9 -24 -5 -19 4 -26 1 -31 -15 -11 -36 -23 -23
-23 24 0 32 4 45 14 45 8 0 14 -7 14 -15z m-318 -12 c25 -23 23 -43 -6 -43
-28 0 -51 24 -42 45 7 20 25 19 48 -2z m-782 -23 c-6 -11 -13 -20 -16 -20 -2
0 0 9 6 20 6 11 13 20 16 20 2 0 0 -9 -6 -20z m1050 6 c0 -22 -36 -26 -37 -5
-1 13 5 19 18 19 10 0 19 -6 19 -14z m-90 -16 c0 -5 -9 -10 -20 -10 -11 0 -20
5 -20 10 0 6 9 10 20 10 11 0 20 -4 20 -10z m-50 -10 c0 -5 -4 -10 -10 -10 -5
0 -10 5 -10 10 0 6 5 10 10 10 6 0 10 -4 10 -10z m80 -10 c0 -12 7 -20 17 -20
13 0 14 -3 6 -11 -9 -9 -16 -8 -27 4 -18 17 -21 47 -6 47 6 0 10 -9 10 -20z
m-99 -6 c10 -13 10 -17 -1 -24 -20 -12 -38 -1 -33 21 6 23 16 24 34 3z m-940
-27 l-24 -22 19 27 c10 14 21 24 23 22 3 -3 -6 -15 -18 -27z m1120 7 c6 -18 4
-20 -18 -16 -18 3 -24 1 -19 -7 4 -6 14 -11 22 -11 19 0 18 -12 -5 -52 -10
-18 -22 -48 -26 -65 -6 -28 -11 -33 -36 -33 -24 0 -29 4 -25 18 17 64 18 64
42 59 24 -4 33 6 14 18 -15 9 -12 48 6 84 17 35 33 36 45 5z m-281 -5 c0 -14
-17 -10 -23 5 -4 10 -1 13 9 9 7 -3 14 -9 14 -14z m178 3 c2 -7 -3 -12 -12
-12 -9 0 -16 7 -16 16 0 17 22 14 28 -4z m-827 -3 c-14 -5 -31 -15 -38 -21 -8
-6 -13 -6 -13 -1 0 12 38 32 60 32 8 0 4 -5 -9 -10z m-111 -4 c0 -3 -20 -27
-45 -52 -44 -44 -55 -71 -18 -42 17 13 17 13 3 -5 -14 -18 -13 -19 15 -14 17
3 39 8 50 12 13 5 11 2 -5 -8 -26 -16 -110 -19 -110 -4 0 6 99 115 108 117 1
1 2 -1 2 -4z m850 -8 c21 -5 15 -21 -10 -25 -14 -2 -20 2 -21 15 0 14 -2 15
-6 3 -13 -32 -53 -41 -53 -12 0 34 13 37 90 19z m-660 -33 c0 -6 3 -26 6 -43
6 -28 4 -31 -20 -31 -26 0 -32 13 -27 50 1 8 2 25 2 38 -1 20 1 21 19 10 11
-7 20 -18 20 -24z m550 11 c27 -26 77 -39 73 -18 -2 8 4 10 15 6 26 -9 42 -24
42 -39 0 -16 -36 -19 -45 -3 -5 7 -13 5 -25 -6 -22 -20 -40 -12 -40 16 0 11
-5 17 -10 14 -6 -4 -24 -4 -40 0 -23 5 -30 12 -30 31 0 32 26 31 60 -1z m-717
-11 c-17 -7 -36 -21 -42 -31 -5 -10 -13 -14 -17 -10 -11 11 54 56 81 55 6 0
-4 -6 -22 -14z m917 5 c0 -5 -4 -8 -8 -5 -5 3 -8 -5 -8 -17 1 -15 -6 -23 -21
-25 -24 -3 -29 11 -17 42 7 18 54 22 54 5z m-801 -16 c-26 -35 -53 -63 -59
-63 -4 0 9 18 29 40 36 41 54 54 30 23z m351 -27 c0 -14 -29 -30 -38 -21 -3 3
0 5 6 5 7 0 12 7 12 15 0 8 5 15 10 15 6 0 10 -6 10 -14z m257 -21 c12 -12 13
-19 3 -30 -18 -21 -50 -19 -50 3 0 16 17 42 28 42 2 0 10 -7 19 -15z m83 -20
c-7 -8 -9 -18 -6 -24 8 -13 -37 0 -46 13 -5 7 4 16 20 23 32 13 48 7 32 -12z
m80 16 c0 -21 -13 -41 -26 -41 -8 0 -14 -7 -14 -15 0 -16 -15 -20 -24 -7 -9
15 26 72 45 72 11 0 19 -4 19 -9z m-785 -11 c3 -5 -1 -10 -10 -10 -9 0 -13 5
-10 10 3 6 8 10 10 10 2 0 7 -4 10 -10z m365 0 c0 -5 -5 -10 -11 -10 -6 0 -7
-5 -2 -12 14 -23 15 -61 2 -52 -8 5 -9 3 -3 -7 5 -8 9 -40 9 -71 1 -50 -1 -56
-14 -45 -14 10 -14 9 0 -8 9 -11 16 -41 17 -68 1 -44 -1 -47 -16 -35 -16 12
-16 11 -1 -7 12 -14 16 -36 15 -69 -2 -52 -16 -67 -42 -45 -12 10 -12 14 -2
21 10 6 9 11 -6 20 -11 6 -34 26 -50 43 -29 31 -74 56 -61 35 3 -6 11 -10 17
-10 14 0 91 -80 84 -87 -3 -3 -28 15 -55 40 -28 26 -54 47 -58 47 -4 0 -1 -6
8 -13 9 -7 39 -33 68 -59 42 -38 48 -47 34 -52 -34 -9 -92 -4 -104 10 -14 17
2 19 19 2 6 -6 14 -9 17 -7 2 3 -10 13 -27 23 -17 11 -28 14 -24 7 4 -6 1 -11
-8 -11 -8 0 -20 10 -27 22 -10 18 -9 20 6 14 15 -5 16 -4 5 9 -27 32 19 15 65
-25 25 -22 49 -40 52 -40 7 0 -66 65 -98 88 -18 12 -17 14 1 32 11 11 20 28
20 38 0 9 5 24 10 32 8 12 16 9 47 -20 21 -20 52 -46 68 -60 17 -14 -1 5 -40
41 -38 37 -66 71 -62 75 5 5 19 -4 31 -19 13 -16 35 -35 51 -43 24 -13 26 -12
15 1 -7 8 -18 15 -24 15 -20 0 -56 57 -50 77 13 39 28 63 41 63 7 0 13 -4 13
-10 0 -5 13 -16 28 -24 23 -12 29 -12 29 -1 0 7 -7 11 -16 8 -13 -4 -13 -3 -2
5 10 8 9 13 -10 25 -12 9 -25 14 -29 12 -4 -2 -7 2 -7 10 0 17 13 20 21 6 3
-5 15 -11 27 -14 24 -7 19 1 -13 17 -31 16 -37 40 -7 31 24 -7 24 -7 4 9 -19
16 -19 16 10 11 17 -3 23 -2 15 1 -25 11 -30 29 -12 36 25 10 32 9 32 -2z
m750 -27 c0 -20 -3 -24 -11 -16 -7 7 -9 19 -6 27 10 24 17 19 17 -11z m-1390
-38 l-44 -45 44 -2 c41 -1 42 -2 10 -5 -19 -3 -39 -9 -45 -14 -12 -12 -25 -12
-25 1 0 11 89 110 98 110 4 0 -14 -20 -38 -45z m191 31 c-7 -8 -23 -17 -36
-20 -14 -4 -25 -10 -25 -15 0 -10 -56 -41 -74 -41 -6 0 5 8 24 17 19 10 38 22
42 27 3 5 21 17 40 27 42 22 43 22 29 5z m1254 -126 c4 -19 3 -21 -4 -9 -6 8
-12 47 -15 85 l-5 69 9 -60 c5 -33 12 -71 15 -85z m-255 95 c0 -19 -4 -35 -9
-35 -5 0 -11 -9 -14 -20 -3 -11 -13 -20 -22 -20 -9 0 -15 3 -13 8 2 4 11 28
22 55 22 56 36 60 36 12z m-300 6 c0 -11 -4 -23 -10 -26 -5 -3 -10 -2 -10 4 0
5 -3 16 -6 25 -4 11 -1 16 10 16 9 0 16 -8 16 -19z m110 -7 c34 -29 29 -48
-11 -42 -19 2 -24 9 -24 30 1 21 -2 24 -12 16 -21 -17 -15 -45 11 -52 23 -6
24 -9 20 -66 -6 -95 -16 -103 -49 -36 -24 48 -27 64 -21 108 4 29 9 55 12 60
10 16 43 8 74 -18z m60 6 c0 -11 -7 -20 -15 -20 -8 0 -15 9 -15 20 0 11 7 20
15 20 8 0 15 -9 15 -20z m-750 6 c0 -2 -7 -7 -16 -10 -8 -3 -12 -2 -9 4 6 10
25 14 25 6z m1253 -26 c3 -11 1 -18 -4 -14 -5 3 -9 12 -9 20 0 20 7 17 13 -6z
m-1330 -12 c3 -10 8 -9 23 2 17 14 18 14 5 -2 -7 -10 -28 -20 -47 -24 -19 -3
-34 -10 -34 -14 0 -4 -17 -13 -37 -19 l-38 -11 49 4 c30 2 44 1 35 -5 -8 -5
-47 -9 -86 -9 -42 0 -73 -4 -73 -10 0 -5 -7 -10 -15 -10 -8 0 -15 4 -15 9 0 4
33 16 73 26 65 16 126 46 135 67 5 12 20 9 25 -4z m147 -43 c0 -30 -39 -135
-50 -135 -3 0 -15 28 -26 63 -19 62 -19 62 1 82 49 50 75 47 75 -10z m734 49
c24 -9 19 -27 -5 -21 -15 4 -27 -1 -40 -16 -13 -17 -20 -19 -30 -10 -18 18 -3
46 21 38 11 -4 20 -2 20 4 0 12 11 14 34 5z m136 -19 c0 -8 -4 -15 -10 -15 -5
0 -10 7 -10 15 0 8 5 15 10 15 6 0 10 -7 10 -15z m50 -7 c0 -13 11 -44 24 -70
12 -26 19 -45 14 -42 -10 6 -58 107 -58 122 0 7 5 12 10 12 6 0 10 -10 10 -22z
m311 -173 c-1 -114 3 -194 9 -208 11 -21 11 -21 -5 -2 -13 16 -15 51 -14 213
1 106 3 191 6 188 3 -3 5 -89 4 -191z m-1011 154 c0 -14 -17 -10 -23 5 -4 10
-1 13 9 9 7 -3 14 -9 14 -14z m500 -8 c0 -22 -29 -36 -44 -21 -8 8 -4 12 12
16 12 4 22 10 22 15 0 5 2 9 5 9 3 0 5 -9 5 -19z m-72 -3 c16 -16 15 -48 -2
-48 -20 0 -37 25 -30 44 7 19 16 20 32 4z m252 -32 c0 -6 -7 -1 -15 10 -8 10
-15 23 -15 28 0 6 7 1 15 -10 8 -10 15 -23 15 -28z m250 2 c0 -24 37 -88 51
-88 5 0 9 -4 9 -10 0 -21 -16 -8 -45 37 -37 58 -49 94 -29 86 8 -3 14 -14 14
-25z m-385 2 c-12 -38 -112 -222 -121 -222 -13 -1 -37 52 -37 82 1 52 35 108
83 133 58 32 84 34 75 7z m-853 -88 c16 -51 14 -72 -7 -124 -4 -10 -11 -18
-16 -18 -8 0 -85 146 -91 173 -2 9 13 28 32 42 l35 26 15 -22 c8 -13 22 -47
32 -77z m-554 67 c10 -14 10 -18 -3 -23 -11 -4 -15 1 -15 21 0 14 1 24 3 22 1
-2 8 -11 15 -20z m1470 -24 c14 -31 15 -46 2 -25 -14 22 -13 -5 1 -32 9 -17 5
-29 -28 -76 -21 -31 -42 -63 -48 -73 -49 -83 -68 -97 -80 -59 -4 14 15 63 61
155 37 74 70 135 74 135 4 0 12 -11 18 -25z m99 8 c31 -40 34 -56 5 -24 -18
18 -32 35 -32 37 0 10 14 3 27 -13z m167 1 c9 -24 7 -27 -9 -10 -17 17 -19 26
-6 26 5 0 12 -7 15 -16z m309 -38 c-4 -39 -1 -63 11 -86 17 -36 21 -60 8 -60
-9 0 -32 94 -32 130 0 26 10 70 15 70 2 0 1 -24 -2 -54z m-1700 21 l42 4 58
-120 c41 -83 57 -126 52 -140 -10 -31 -31 -25 -49 14 -9 19 -21 35 -26 35 -6
0 -10 5 -10 10 0 11 -85 140 -98 150 -9 7 -32 48 -32 57 0 4 5 2 11 -4 6 -6
29 -9 52 -6z m-225 -4 c-15 -2 -42 -2 -60 0 -18 2 -6 4 27 4 33 0 48 -2 33 -4z
m1869 -144 c5 -84 9 -106 19 -102 8 3 14 13 15 22 0 10 2 11 6 4 2 -7 -2 -27
-11 -44 -14 -27 -14 -33 -1 -46 8 -8 15 -24 15 -36 0 -19 -4 -18 -37 14 -21
20 -51 45 -67 57 -16 12 -24 22 -19 22 5 0 29 -17 53 -37 30 -26 42 -32 37
-19 -4 11 -10 47 -13 80 -6 70 -21 113 -46 138 -10 10 -18 24 -17 31 0 6 5 2
11 -10 6 -12 17 -24 26 -28 13 -5 14 3 9 52 -4 42 -3 51 4 34 5 -14 12 -73 16
-132z m-1967 133 c0 -4 -15 -14 -32 -21 -18 -8 -48 -30 -65 -50 -18 -19 -33
-32 -33 -27 0 11 63 72 83 79 9 4 17 11 17 17 0 5 7 10 15 10 8 0 15 -3 15 -8z
m-181 -39 c-11 -21 -22 -55 -26 -75 -3 -21 -9 -38 -14 -38 -11 0 -12 33 -1 46
5 5 17 30 26 57 10 26 21 47 26 47 4 0 -1 -17 -11 -37z m1802 20 c13 -16 12
-17 -3 -4 -10 7 -18 15 -18 17 0 8 8 3 21 -13z m146 -56 c7 -4 13 -12 13 -18
0 -16 -35 23 -48 54 -18 42 -13 47 6 7 9 -19 23 -39 29 -43z m-153 3 c33 -8
71 -24 85 -35 14 -12 35 -27 46 -33 11 -6 15 -12 8 -12 -6 0 -26 12 -43 26
-18 15 -62 35 -103 45 -39 11 -78 27 -87 36 -14 15 -13 15 10 2 14 -9 52 -22
84 -29z m-1619 -60 c8 0 19 9 25 20 6 11 15 20 20 20 6 0 0 -11 -12 -25 -12
-14 -28 -25 -35 -25 -8 0 -16 -8 -20 -17 -8 -23 -43 -57 -43 -43 0 6 6 13 14
16 9 3 18 28 23 62 6 46 8 51 11 25 2 -20 9 -33 17 -33z m1510 -10 c17 -37 17
-41 2 -58 -10 -10 -17 -21 -17 -24 0 -4 -25 -31 -55 -62 -55 -55 -56 -56 -81
-40 -21 14 -23 19 -12 34 7 10 36 50 63 90 28 40 54 78 60 86 15 21 20 18 40
-26z m-1775 -20 c0 -27 -4 -50 -10 -50 -5 0 -10 23 -10 50 0 28 5 50 10 50 6
0 10 -22 10 -50z m120 27 c-14 -12 -34 -40 -45 -62 -11 -22 -23 -42 -26 -45
-4 -3 -10 -20 -14 -37 -7 -34 -20 -51 -23 -30 -1 7 -4 30 -7 52 -5 39 -4 39 8
13 l13 -28 12 28 c20 48 49 91 73 111 33 28 40 26 9 -2z m282 -7 c2 -7 14 -7
36 1 18 6 35 9 38 6 3 -3 -8 -8 -25 -12 -17 -4 -31 -11 -31 -16 0 -5 -5 -9
-12 -9 -7 0 -25 -12 -42 -27 l-30 -28 22 29 c12 16 22 37 22 47 0 20 16 26 22
9z m1658 -20 c0 -5 -4 -10 -10 -10 -5 0 -10 5 -10 10 0 6 5 10 10 10 6 0 10
-4 10 -10z m-2029 -46 c-5 -21 -9 -30 -10 -19 -1 24 10 67 15 62 3 -2 0 -22
-5 -43z m116 -20 l-6 -66 21 29 c33 43 40 50 33 31 -6 -14 -1 -18 21 -19 l29
-2 -27 -4 c-16 -2 -28 -8 -28 -12 0 -5 -8 -11 -18 -13 -21 -6 -66 -94 -58
-114 4 -11 -4 -14 -32 -13 -24 1 -29 3 -14 6 12 2 21 10 20 16 -1 7 8 33 21
60 12 26 25 74 28 107 3 33 8 60 11 60 3 0 2 -30 -1 -66z m1803 41 c13 -14 21
-25 18 -25 -2 0 -15 11 -28 25 -13 14 -21 25 -18 25 2 0 15 -11 28 -25z m-970
-20 c21 -25 1 -31 -22 -7 -18 18 -19 22 -6 22 8 0 21 -7 28 -15z m-430 -70
c59 -59 58 -75 -2 -75 -27 0 -98 52 -98 72 0 11 32 57 40 58 3 0 30 -25 60
-55z m1285 44 c4 -5 18 -15 32 -20 14 -5 24 -11 22 -13 -98 -87 -130 -101
-169 -76 -12 8 -5 19 40 65 57 57 65 62 75 44z m170 -9 c10 -11 16 -20 13 -20
-3 0 -13 9 -23 20 -10 11 -16 20 -13 20 3 0 13 -9 23 -20z m-1675 7 c0 -2 -10
-12 -22 -23 l-23 -19 19 23 c18 21 26 27 26 19z m1624 -12 c11 -8 16 -15 10
-15 -5 0 -18 7 -28 15 -11 8 -16 15 -10 15 5 0 18 -7 28 -15z m90 -1 c3 -9 6
-23 6 -32 0 -8 8 -25 17 -36 9 -12 2 -6 -17 12 -29 27 -32 34 -20 42 10 6 11
10 3 10 -7 0 -13 5 -13 10 0 16 17 12 24 -6z m-34 -24 c0 -5 -7 -10 -15 -10
-8 0 -15 5 -15 10 0 6 7 10 15 10 8 0 15 -4 15 -10z m-1761 -49 c-11 -16 -32
-34 -45 -40 -26 -12 -31 -26 -11 -34 6 -3 -6 -6 -28 -6 -36 -1 -38 0 -19 12
44 25 80 53 97 74 27 33 31 28 6 -6z m1721 2 c81 -44 65 -58 -56 -48 l-84 7
41 34 c23 19 43 34 45 34 2 0 27 -12 54 -27z m-1575 -46 c-44 -5 -88 -12 -97
-18 -23 -12 -78 -12 -78 1 0 6 16 10 35 10 38 0 73 13 124 47 l33 23 32 -28
32 -27 -81 -8z m1341 -16 c5 -4 108 -18 229 -31 121 -12 225 -26 230 -30 6 -4
92 -16 193 -26 100 -10 182 -23 182 -28 0 -13 -31 -46 -43 -46 -5 0 -51 -43
-102 -95 -52 -52 -98 -95 -103 -95 -4 0 -46 -38 -91 -85 -46 -47 -86 -85 -88
-85 -3 0 -64 -56 -136 -125 -72 -69 -132 -123 -134 -122 -2 2 2 30 8 63 9 50
17 65 52 97 l42 39 -44 -33 -43 -33 7 32 c8 40 -23 252 -38 252 -29 0 16 20
88 40 44 12 85 26 90 30 6 4 46 18 90 29 44 12 89 26 100 31 19 9 124 40 134
40 2 0 -6 -12 -20 -27 -13 -16 -5 -10 18 11 24 22 41 41 40 43 -2 1 -73 10
-158 19 -85 8 -163 19 -174 24 -11 5 -96 16 -190 25 -167 16 -171 17 -202 48
-18 17 -33 35 -33 39 0 11 84 10 96 -1z m-1813 -48 c-7 -2 -21 -2 -30 0 -10 3
-4 5 12 5 17 0 24 -2 18 -5z m1910 -45 c20 0 37 -2 37 -6 1 -4 12 -20 26 -37
15 -18 22 -22 18 -11 -5 14 -3 17 7 14 8 -3 13 -15 12 -26 -2 -12 7 -29 20
-39 32 -26 56 -68 48 -81 -5 -8 -19 4 -41 33 -19 25 -37 45 -41 45 -4 0 -10 8
-14 18 -3 9 -19 33 -35 52 -24 28 -28 31 -23 13 3 -13 2 -23 -1 -23 -4 0 -11
10 -16 23 -5 12 -9 15 -9 7 0 -8 20 -39 44 -68 25 -30 45 -49 45 -43 0 20 15
11 38 -22 12 -18 22 -36 22 -39 0 -10 -59 -30 -69 -23 -6 3 -11 13 -11 20 0 8
-11 22 -25 31 -14 9 -25 24 -25 33 0 11 11 4 35 -21 44 -48 46 -38 3 11 -18
20 -41 47 -51 61 l-19 25 17 -28 c18 -32 15 -46 -5 -22 -7 8 -17 15 -23 15 -6
0 -1 -7 11 -16 12 -8 22 -21 22 -29 0 -7 11 -22 24 -32 13 -10 27 -27 30 -38
5 -16 1 -21 -17 -22 -12 0 -16 1 -9 4 6 3 12 9 12 15 0 6 -7 7 -16 4 -8 -3
-12 -2 -9 4 3 5 -10 30 -29 56 -27 35 -33 50 -27 67 8 20 -11 77 -25 77 -2 0
0 -9 6 -20 6 -11 8 -26 4 -32 -5 -7 -3 -8 6 -3 9 5 11 4 6 -3 -5 -9 -12 -8
-26 0 -11 7 -15 15 -10 18 4 3 3 13 -4 22 -7 10 -15 15 -18 12 -4 -3 -9 -1
-12 4 -3 5 12 7 37 4 23 -2 59 -4 80 -4z m71 -24 c3 -8 2 -12 -4 -9 -6 3 -10
10 -10 16 0 14 7 11 14 -7z m51 -11 c13 -16 36 -41 50 -58 l26 -30 -26 40
c-15 22 -33 44 -41 48 -8 4 -14 13 -14 20 0 8 3 7 9 -2 5 -8 27 -14 50 -15 36
-1 45 -7 81 -50 49 -59 50 -74 7 -67 -4 1 -22 -6 -39 -15 -31 -16 -33 -16 -48
6 -8 12 -28 34 -43 49 -16 16 -25 34 -22 43 3 8 -1 21 -10 28 -14 12 -21 30
-10 30 3 0 16 -12 30 -27z m233 -24 c12 -7 22 -19 22 -26 0 -6 4 -14 9 -17 5
-4 7 4 4 16 -5 23 -5 23 11 3 17 -20 17 -20 6 3 -6 12 -14 20 -18 18 -5 -3
-14 -1 -21 3 -9 6 -3 9 15 9 16 0 34 -3 39 -7 6 -3 19 -6 29 -6 40 0 25 -23
-26 -40 l-53 -17 -28 34 c-17 19 -24 24 -18 11 6 -12 16 -25 21 -28 6 -4 8
-11 4 -16 -6 -10 -44 25 -63 58 -6 10 -11 13 -11 6 0 -7 11 -24 25 -39 13 -14
22 -31 19 -36 -6 -9 -53 38 -74 74 -9 15 -5 16 37 14 27 -1 58 -9 71 -17z
m-294 -30 l20 -34 -22 19 c-12 11 -22 25 -22 32 0 7 -5 15 -10 17 -6 3 -5 4 2
3 7 -1 22 -18 32 -37z m450 16 c-4 -8 -10 -12 -15 -9 -14 8 -10 24 6 24 9 0
12 -6 9 -15z m-2369 -26 c4 -6 13 -8 20 -5 7 2 16 2 19 -2 4 -3 16 -7 28 -9
24 -4 74 -52 70 -69 -1 -6 7 -19 17 -28 11 -10 17 -24 14 -32 -3 -10 0 -12 10
-9 8 4 25 -6 40 -24 14 -17 29 -31 33 -31 4 0 17 -8 28 -17 21 -18 21 -18 2 5
-11 12 -16 25 -13 28 3 4 41 -26 84 -66 60 -56 78 -79 79 -101 1 -19 -2 -26
-10 -22 -6 3 -3 -3 8 -15 10 -11 16 -27 14 -34 -3 -8 -79 59 -189 166 -101 99
-206 201 -234 228 -27 26 -44 48 -38 48 7 0 15 -5 18 -11z m216 -68 c13 -11
21 -22 18 -26 -4 -3 -18 5 -32 19 -30 30 -20 35 14 7z m-341 -71 c0 -11 11
-23 28 -29 27 -11 27 -11 -5 -5 -36 6 -73 -10 -73 -31 0 -22 -17 -18 -23 5 -3
11 -1 18 4 15 4 -3 20 2 35 11 18 13 24 24 21 40 -2 13 0 21 4 18 5 -3 9 -14
9 -24z m473 -21 c22 -22 37 -42 33 -46 -3 -3 2 -15 11 -26 18 -20 18 -20 -12
-1 -34 21 -97 84 -84 84 4 0 11 -4 14 -10 3 -5 11 -10 18 -10 6 0 0 8 -13 17
-14 10 -28 18 -32 18 -4 0 -12 5 -19 12 -10 10 -6 11 16 7 16 -3 46 -23 68
-45z m2198 -59 c5 -23 20 -50 32 -60 20 -17 22 -27 22 -128 0 -101 1 -108 18
-98 9 6 17 21 17 33 0 12 4 24 8 27 5 3 6 -8 4 -25 -2 -16 -12 -34 -22 -39
-23 -12 -68 -104 -79 -160 -5 -25 -9 -36 -10 -26 -2 29 22 136 30 136 16 0 31
94 28 175 -4 75 -7 88 -26 103 -13 9 -26 33 -29 52 -4 19 -11 44 -17 55 -7 15
-7 17 3 9 6 -7 16 -31 21 -54z m-2559 -41 c9 -19 17 -38 17 -44 0 -5 -9 7 -19
29 -10 21 -24 43 -31 48 -11 8 -11 9 1 6 8 -3 23 -20 32 -39z m-132 6 c7 -8 8
-15 2 -15 -5 0 -15 7 -22 15 -7 8 -8 15 -2 15 5 0 15 -7 22 -15z m-60 -80 c0
-43 -4 -75 -10 -75 -6 0 -10 32 -10 75 0 43 4 75 10 75 6 0 10 -32 10 -75z
m2630 0 c-7 -8 -14 -52 -17 -97 -2 -46 -8 -92 -13 -103 -5 -11 -14 -36 -19
-55 -8 -30 -9 -27 -4 20 4 39 0 67 -11 94 -22 53 -19 60 5 11 l20 -40 -4 115
c-2 63 -2 89 0 58 4 -56 23 -83 23 -34 0 14 5 28 10 31 6 3 11 23 12 43 l1 37
4 -33 c3 -18 -1 -40 -7 -47z m-2580 -179 c6 -6 10 -24 10 -40 1 -17 9 -56 20
-86 23 -68 19 -79 -6 -14 -10 26 -34 63 -52 82 -20 19 -26 30 -14 23 16 -8 21
-7 26 5 9 24 7 41 -3 25 -10 -16 -17 0 -25 64 -5 36 -4 35 8 -10 l14 -50 3
105 3 105 3 -100 c2 -55 8 -104 13 -109z m196 149 c9 -25 15 -48 12 -50 -3 -3
-10 13 -17 35 -6 22 -16 40 -21 40 -6 0 -10 5 -10 10 0 25 20 6 36 -35z m-75
-82 c1 -65 3 -109 6 -98 15 66 53 134 53 95 0 -5 -4 -10 -8 -10 -23 0 -59
-179 -47 -236 5 -21 7 -46 6 -54 -6 -41 65 103 76 155 l13 60 -6 -55 c-3 -37
-17 -76 -40 -117 -42 -76 -54 -85 -54 -39 0 19 -4 38 -10 41 -5 3 -10 32 -10
63 -1 31 -7 93 -15 137 -18 97 -18 131 0 55 l13 -55 1 88 c2 134 21 108 22
-30z m2379 57 c0 -16 -4 -30 -10 -30 -5 0 -10 14 -10 30 0 17 5 30 10 30 6 0
10 -13 10 -30z m-2230 -76 c0 -35 4 -66 10 -69 6 -4 5 -14 -4 -28 -8 -12 -20
-52 -27 -89 -7 -37 -19 -70 -26 -72 -14 -6 -11 27 7 69 31 75 42 222 19 268
-10 21 -10 21 5 3 11 -13 16 -41 16 -82z m-53 4 c-3 -7 -5 -2 -5 12 0 14 2 19
5 13 2 -7 2 -19 0 -25z m134 -1 c-10 -9 -11 -8 -5 6 3 10 9 15 12 12 3 -3 0
-11 -7 -18z m-111 -42 c0 -14 -4 -25 -10 -25 -5 0 -10 11 -10 25 0 14 5 25 10
25 6 0 10 -11 10 -25z m73 1 c-10 -13 -20 -22 -22 -20 -4 4 29 44 36 44 2 0
-4 -11 -14 -24z m2032 14 c-3 -5 -16 -15 -28 -21 -19 -9 -19 -8 3 10 28 23 34
26 25 11z m295 -57 c-11 -17 -11 -17 -6 0 3 10 7 31 7 45 l2 27 4 -27 c2 -15
-1 -35 -7 -45z m-2089 -13 l24 -19 -22 -1 c-12 0 -24 -4 -27 -9 -3 -5 -36 -12
-73 -16 -36 -4 -72 -9 -79 -12 -10 -4 -11 2 -1 26 9 26 18 31 62 39 77 15 91
14 116 -8z m1707 3 l23 -5 -21 -23 c-18 -19 -29 -22 -63 -18 -23 3 -46 9 -51
14 -6 5 -19 9 -30 9 -19 0 -19 0 0 21 16 18 26 20 69 14 27 -3 60 -9 73 -12z
m90 -82 c7 -48 12 -99 11 -112 -1 -13 -7 15 -14 63 -7 48 -15 94 -18 103 -10
24 -27 18 -38 -15 -10 -28 -29 -41 -29 -20 0 6 5 10 10 10 6 0 10 6 10 14 0
14 36 46 50 46 4 0 12 -40 18 -89z m275 -49 c7 -107 0 -222 -14 -222 -5 0 -9
18 -9 40 0 22 5 40 10 40 6 0 10 24 10 54 0 30 -4 58 -10 61 -5 3 -10 32 -10
63 l0 56 -52 -49 -53 -50 54 57 c30 31 57 55 61 53 4 -2 10 -49 13 -103z
m-2019 26 c-4 -24 -11 -45 -16 -46 -4 -2 -6 -7 -3 -12 3 -4 -5 -6 -17 -2 -14
3 -19 1 -14 -6 4 -8 2 -10 -8 -6 -8 3 -24 0 -36 -6 -19 -10 -26 -7 -59 29
l-37 40 50 11 c27 6 54 15 60 19 6 5 25 11 41 14 17 2 33 5 38 6 4 0 4 -18 1
-41z m1559 14 c30 -13 36 -20 31 -36 -12 -41 -23 -51 -52 -51 -17 0 -28 4 -24
9 3 5 -5 7 -16 4 -12 -4 -20 -2 -16 3 3 5 1 9 -4 9 -6 0 -12 20 -14 44 l-3 45
30 -6 c16 -3 47 -12 68 -21z m81 -22 c-10 -16 -20 -28 -22 -26 -4 5 28 56 35
56 2 0 -4 -13 -13 -30z m-1854 -24 c0 -19 -22 -35 -58 -42 -32 -7 -40 -18 -22
-29 6 -4 22 0 35 9 13 9 27 16 30 16 15 0 -11 -48 -44 -81 -43 -43 -76 -57
-84 -34 -4 8 -3 14 1 14 32 -5 42 3 42 34 0 18 -5 38 -11 44 -13 13 41 70 74
76 12 2 25 5 30 6 4 0 7 -5 7 -13z m2100 -9 c0 -2 -12 -14 -27 -28 l-28 -24
24 28 c23 25 31 32 31 24z m-2411 -37 c5 -16 8 -30 6 -30 -2 0 -10 14 -19 30
-8 17 -11 30 -6 30 4 0 13 -13 19 -30z m2201 -26 c0 -8 -4 -14 -10 -14 -5 0
-10 -5 -10 -12 0 -14 -41 -101 -50 -108 -4 -3 -10 -27 -14 -53 -4 -27 -9 -47
-12 -45 -8 8 9 99 20 111 18 20 45 80 52 114 6 32 24 37 24 7z m110 -44 c-23
-27 -44 -50 -47 -50 -6 0 12 23 56 73 42 46 35 30 -9 -23z m-1804 24 c-3 -9
-6 -21 -6 -28 0 -7 -11 -18 -24 -24 -21 -9 -25 -8 -30 11 -4 15 1 27 15 40 27
22 53 23 45 1z m1548 -6 c22 -20 24 -25 12 -40 -11 -16 -15 -16 -34 -2 -22 15
-31 64 -13 64 6 0 21 -10 35 -22z m-1694 -19 c0 -10 5 -19 10 -19 6 0 10 -17
11 -37 l1 -38 8 33 c4 18 11 36 15 40 4 4 5 -2 2 -13 -15 -54 -15 -89 -3 -200
8 -66 14 -108 15 -92 0 15 5 27 9 27 5 0 15 38 22 85 7 47 15 83 18 80 6 -6
-29 -247 -38 -260 -4 -5 -16 -72 -26 -147 -12 -90 -23 -138 -31 -138 -6 0 -21
-12 -33 -27 l-21 -27 -29 30 c-23 22 -27 32 -19 44 9 12 10 12 5 -4 -5 -14 1
-11 22 10 36 38 22 57 -16 21 -47 -45 -60 -29 -17 21 28 34 24 46 -11 30 -14
-7 -20 -14 -14 -18 6 -4 8 -14 4 -23 -9 -26 -20 -12 -19 25 1 27 5 34 24 36
13 2 36 -6 52 -17 23 -17 32 -19 52 -10 35 16 61 163 47 264 -6 39 -13 106
-16 150 -3 44 -10 82 -15 83 -5 2 -9 8 -9 14 0 6 -10 20 -22 31 l-23 19 23 -6
c12 -4 22 -6 22 -4 0 2 -4 18 -9 36 -6 20 -6 30 0 27 5 -4 9 -15 9 -26z m1527
5 c7 -19 -14 -35 -34 -27 -8 3 -1 -9 16 -27 16 -19 28 -37 26 -41 -3 -4 2 -12
10 -19 9 -7 13 -21 10 -31 -3 -9 -1 -20 5 -24 5 -3 8 -19 5 -35 -3 -16 -1 -32
5 -35 5 -3 10 -11 10 -17 0 -6 -8 -4 -18 5 -10 10 -21 17 -25 17 -12 0 -89 81
-83 87 4 4 24 -10 45 -31 22 -21 45 -36 53 -33 10 4 9 6 -3 6 -20 1 -78 61
-59 61 8 0 28 -12 44 -27 l31 -28 -29 33 c-17 17 -34 32 -40 32 -6 0 -20 12
-32 27 -21 27 -21 27 -2 60 11 18 24 33 29 33 5 0 9 7 9 15 0 20 19 19 27 -1z
m547 -28 c-3 -21 -8 -35 -11 -32 -2 2 -1 20 3 40 3 21 8 35 11 32 2 -2 1 -20
-3 -40z m-2409 10 c7 3 16 1 20 -5 3 -6 17 -8 31 -5 21 6 24 3 24 -24 0 -24
-5 -31 -22 -34 -41 -6 -68 3 -68 24 0 11 -5 29 -11 41 -9 18 -9 20 1 10 7 -6
18 -9 25 -7z m250 -25 c-3 -6 -15 -16 -26 -21 -15 -9 -19 -7 -19 5 0 9 10 19
23 24 25 10 32 7 22 -8z m-141 -226 c4 -12 1 -10 -8 5 -11 19 -15 51 -14 125
l2 100 6 -105 c3 -58 9 -114 14 -125z m2239 208 c-4 -10 -13 -24 -21 -32 -10
-11 -13 -32 -10 -74 3 -46 0 -68 -15 -96 -12 -22 -16 -27 -12 -11 4 14 11 59
14 100 8 78 24 130 40 130 6 0 7 -8 4 -17z m-2139 -32 c-2 -3 -12 3 -22 13
-16 17 -16 18 5 5 12 -7 20 -15 17 -18z m2375 -19 c-21 -39 -55 -68 -42 -36 3
7 9 14 14 14 4 0 16 16 25 35 9 20 18 34 21 32 2 -2 -6 -23 -18 -45z m-382 20
c-10 -10 -17 -23 -17 -28 0 -5 -9 -17 -20 -27 -11 -9 -20 -12 -20 -7 0 6 7 13
15 16 8 4 15 11 15 17 0 11 29 47 38 47 3 0 -2 -8 -11 -18z m193 8 c0 -5 -4
-10 -8 -10 -8 0 -32 -65 -32 -85 0 -4 8 -4 18 -1 14 5 14 4 -2 -9 -23 -17 -46
-20 -46 -5 0 6 4 10 8 10 5 0 16 25 26 55 9 30 21 55 27 55 5 0 9 -4 9 -10z
m-2095 -18 c-3 -3 -11 0 -18 7 -9 10 -8 11 6 5 10 -3 15 -9 12 -12z m155 3 c0
-8 -2 -15 -4 -15 -2 0 -6 7 -10 15 -3 8 -1 15 4 15 6 0 10 -7 10 -15z m1338
-12 l20 -28 -28 -2 c-16 -1 -34 5 -41 13 -19 23 -2 29 23 8 23 -19 23 -19 6 2
-20 23 -23 34 -9 34 5 0 18 -12 29 -27z m-1458 -47 c0 -6 -7 -1 -15 10 -8 10
-15 23 -15 28 0 6 7 1 15 -10 8 -10 15 -23 15 -28z m2151 -13 c-16 -64 -31
-103 -42 -103 -13 0 -11 9 4 25 8 7 20 41 27 74 7 34 15 59 18 57 2 -3 -1 -27
-7 -53z m-718 17 c3 0 26 -20 50 -45 25 -25 49 -45 55 -45 20 0 53 -53 48 -77
-4 -15 0 -25 11 -32 12 -7 14 -10 4 -11 -10 0 -11 -3 -2 -13 17 -21 2 -28 -19
-9 -10 10 -37 33 -59 52 -23 19 -62 55 -89 80 -26 25 -56 50 -67 55 -30 16
-29 38 2 56 24 13 30 14 44 2 8 -7 18 -13 22 -13z m-1578 9 c11 -16 1 -19 -13
-3 -7 8 -8 14 -3 14 5 0 13 -5 16 -11z m2245 -3 c0 -2 -9 -6 -20 -9 -11 -3
-18 -1 -14 4 5 9 34 13 34 5z m-2210 -48 c0 48 17 19 23 -41 3 -34 13 -76 22
-92 l16 -30 -6 50 c-7 53 13 131 23 90 2 -10 -1 -21 -7 -23 -14 -5 -15 -62 -1
-62 6 0 10 -11 10 -24 0 -29 28 -98 44 -108 8 -6 7 -11 -4 -18 -22 -14 -30
-12 -24 5 4 9 -6 34 -22 56 -16 23 -33 50 -39 62 -5 11 -19 25 -30 31 -10 6
-26 17 -34 25 -13 12 -12 13 7 7 26 -9 28 1 7 51 -19 44 -19 56 0 23 14 -25
14 -25 15 -2z m130 12 c0 -5 -4 -10 -10 -10 -5 0 -10 5 -10 10 0 6 5 10 10 10
6 0 10 -4 10 -10z m2170 -10 c-6 -11 -13 -20 -16 -20 -2 0 0 9 6 20 6 11 13
20 16 20 2 0 0 -9 -6 -20z m-2490 -73 c13 -29 36 -69 52 -89 16 -21 28 -38 26
-38 -2 0 -28 26 -58 57 -30 32 -47 51 -37 44 28 -22 22 8 -14 65 -22 34 -25
43 -11 31 11 -10 30 -42 42 -70z m132 18 c9 -18 9 -18 -5 -5 -8 8 -17 29 -20
45 -6 29 -6 29 4 5 6 -14 16 -34 21 -45z m642 58 c3 -4 16 -8 28 -10 11 -2 27
-11 34 -21 7 -9 17 -18 23 -18 6 -1 18 -2 26 -3 8 0 34 -18 57 -38 38 -35 40
-36 23 -9 l-19 29 21 -12 c12 -6 25 -15 28 -21 3 -5 13 -7 23 -4 9 2 1 -3 -18
-12 -19 -9 -37 -19 -40 -23 -20 -29 -45 -13 -121 79 l-20 25 17 -30 c10 -16
30 -42 46 -57 30 -29 41 -61 13 -38 -13 11 -14 10 -10 -2 4 -11 -6 -23 -29
-38 -36 -22 -56 -20 -56 6 0 7 -9 19 -20 26 -11 7 -20 17 -20 23 0 5 -13 24
-28 40 -15 17 -24 26 -19 21 11 -15 8 -29 -5 -23 -9 3 -14 -6 -15 -27 0 -17 1
-24 5 -16 10 28 28 40 41 27 6 -6 11 -17 11 -25 0 -12 -3 -12 -17 -1 -17 12
-17 11 0 -6 10 -11 25 -20 34 -20 8 0 19 -10 24 -23 7 -19 5 -24 -14 -31 -28
-11 -59 14 -55 43 2 15 -3 21 -16 21 -27 0 -35 33 -18 77 17 42 36 49 52 18 6
-11 18 -20 27 -20 9 0 13 -3 10 -6 -4 -4 3 -24 15 -45 21 -38 38 -50 38 -28 0
8 6 7 17 -2 15 -13 15 -12 2 8 -9 16 -16 19 -21 10 -6 -9 -12 -7 -23 7 -20 27
-19 41 3 25 9 -7 7 -2 -5 12 -13 14 -23 30 -23 36 0 11 -28 27 -42 25 -4 -1
-2 12 4 28 10 30 19 36 32 23z m1416 -49 c0 -19 -4 -34 -10 -34 -5 0 -10 18
-10 41 0 24 4 38 10 34 6 -3 10 -22 10 -41z m-374 -102 c16 -15 47 -40 67 -57
36 -29 46 -45 29 -45 -4 0 -35 23 -68 52 -32 29 -50 42 -40 30 23 -27 3 -31
-26 -5 -19 17 -26 49 -8 38 6 -4 -12 16 -40 44 -66 66 -65 83 3 19 28 -27 66
-61 83 -76z m699 88 c-10 -11 -25 -20 -34 -19 -10 0 -8 3 7 9 12 5 22 14 22
20 0 5 5 10 12 10 6 0 3 -9 -7 -20z m-1757 -15 c-3 -3 -9 2 -12 12 -6 14 -5
15 5 6 7 -7 10 -15 7 -18z m1630 -40 c-18 -40 -1 -42 40 -4 l37 34 -34 -37
c-18 -20 -47 -42 -62 -49 -16 -6 -29 -17 -29 -23 -1 -14 -39 -60 -45 -54 -3 3
4 13 15 23 11 10 20 24 20 31 0 7 6 17 14 21 8 4 21 25 29 46 9 20 18 37 21
37 3 0 0 -11 -6 -25z m-2240 -49 c17 -16 32 -33 32 -37 0 -13 -67 56 -79 81
-10 21 -10 22 1 5 7 -10 28 -33 46 -49z m2126 29 c-7 -16 -24 -21 -24 -6 0 8
7 13 27 20 1 1 0 -6 -3 -14z m-1084 -195 c0 -113 -4 -180 -10 -180 -6 0 -10
64 -10 173 0 153 3 187 17 187 2 0 3 -81 3 -180z m-553 133 c4 -10 15 -25 24
-33 15 -13 36 -60 27 -60 -6 0 -78 96 -78 104 0 14 21 5 27 -11z m493 -148 c0
-140 -2 -165 -15 -165 -13 0 -15 24 -15 158 0 87 3 162 7 165 19 20 23 -7 23
-158z m167 -88 c-1 -45 -3 -5 -3 88 0 94 2 130 3 82 2 -48 2 -125 0 -170z
m602 175 c28 -25 30 -29 11 -20 -14 7 -37 26 -53 41 -15 15 -32 25 -37 22 -5
-3 -7 0 -4 9 6 16 14 11 83 -52z m-813 -139 c-3 -3 -10 -2 -16 2 -9 5 -9 10
-1 18 6 6 11 15 11 19 0 11 -34 -24 -55 -55 -11 -17 -22 -23 -36 -20 -20 6
-20 6 0 27 12 12 21 26 21 31 0 5 7 16 16 26 14 15 13 18 -15 27 -17 6 -31 15
-31 19 0 28 30 65 65 82 l40 19 3 -95 c1 -53 1 -98 -2 -100z m269 176 c49 -29
71 -69 38 -69 -10 0 -24 -4 -32 -9 -12 -8 -8 -18 22 -54 32 -39 34 -46 19 -52
-11 -4 -24 2 -39 19 -12 15 -27 25 -34 24 -6 -2 -14 3 -17 11 -3 9 0 11 9 6
11 -6 12 -5 2 6 -12 12 -19 139 -9 139 3 0 21 -10 41 -21z m-1205 -31 c0 -5
-13 1 -30 14 -16 12 -30 23 -30 25 0 2 14 -4 30 -14 17 -9 30 -21 30 -25z m80
-24 c17 -19 10 -15 -20 10 -61 53 -71 63 -35 39 17 -12 41 -34 55 -49z m407
36 c29 -36 38 -60 24 -60 -7 0 -21 16 -32 35 -12 19 -25 35 -30 35 -5 0 -9 5
-9 10 0 19 25 9 47 -20z m-13 -35 c11 -19 16 -38 13 -42 -4 -3 -7 -1 -7 5 0 6
-15 20 -32 32 l-33 22 28 -24 c30 -26 35 -48 12 -48 -9 0 -20 11 -25 25 -5 14
-12 25 -14 25 -7 0 4 -31 16 -47 5 -6 5 -14 0 -17 -5 -3 -19 8 -31 24 -12 17
-17 30 -12 30 6 0 17 13 26 30 18 35 34 31 59 -15z m349 -17 c-4 -23 -11 -28
-33 -28 -44 0 -87 -19 -98 -45 -7 -14 -15 -25 -19 -26 -5 -1 -22 -2 -40 -4
-18 -1 -53 -17 -79 -34 -26 -17 -53 -31 -61 -31 -7 0 -13 -5 -13 -10 0 -6 -11
-15 -25 -20 -21 -8 -24 -14 -19 -35 6 -24 4 -25 -39 -25 -41 0 -45 -2 -40 -21
3 -11 14 -26 24 -32 11 -7 19 -17 19 -22 0 -38 188 -165 245 -165 14 0 37 -8
52 -17 39 -26 147 -23 201 5 l42 22 0 -51 0 -51 -42 7 c-24 3 -52 10 -63 15
-11 5 -67 16 -125 25 -84 12 -122 23 -189 57 -54 27 -90 53 -101 71 -10 16
-27 35 -39 43 -11 8 -21 21 -21 28 0 19 -67 79 -82 73 -9 -4 -7 -6 5 -6 18 -1
23 -26 7 -36 -6 -4 -7 -11 -4 -17 5 -8 1 -9 -10 -5 -10 4 -15 3 -11 -3 3 -6
-1 -7 -9 -4 -20 8 -20 13 1 38 15 18 14 18 -8 -1 -30 -27 -35 -28 -43 -7 -3 8
-2 13 3 10 5 -3 14 1 21 9 7 9 34 26 59 39 128 65 246 128 251 134 8 10 282
153 286 149 1 -1 0 -14 -3 -29z m487 11 c19 -11 27 -18 17 -15 -10 3 -27 6
-37 6 -10 0 -20 7 -24 15 -7 20 2 18 44 -6z m132 -71 c15 -10 48 -28 73 -39
25 -11 45 -23 45 -27 0 -4 23 -16 50 -27 28 -11 50 -23 50 -27 0 -4 5 -8 10
-8 6 0 39 -18 75 -39 36 -22 73 -42 82 -45 10 -4 29 -15 43 -26 21 -17 23 -21
10 -30 -19 -12 -33 -13 -25 -1 6 11 -11 24 -36 28 -9 1 -27 -9 -40 -24 -13
-14 -19 -23 -13 -20 7 4 14 0 18 -8 3 -8 12 -12 21 -9 14 6 14 8 0 24 -11 13
-13 20 -5 25 13 8 40 -12 40 -30 0 -15 -48 -37 -62 -29 -7 4 -8 2 -4 -4 8 -13
-52 -54 -66 -46 -5 3 -23 -7 -41 -23 -18 -16 -49 -35 -68 -43 -18 -8 -36 -16
-39 -19 -11 -13 -80 -31 -155 -41 -44 -6 -87 -15 -96 -20 -8 -4 -46 -11 -82
-15 l-67 -7 0 46 c0 49 4 53 34 31 24 -18 127 -20 144 -3 22 22 12 28 -50 29
-35 0 -72 4 -82 8 -19 7 -18 8 5 16 13 4 40 12 59 16 26 6 18 7 -30 4 -40 -2
-57 0 -45 5 19 8 19 9 -2 9 -13 1 -23 6 -23 11 0 7 13 9 33 6 17 -3 74 -8 125
-11 l92 -7 0 87 0 87 -92 -7 c-51 -3 -108 -8 -125 -11 -25 -4 -33 -1 -33 11 0
11 10 15 38 15 21 0 42 4 48 9 5 5 51 11 102 15 l92 6 0 -124 0 -123 -42 -8
c-24 -4 -37 -9 -30 -12 7 -3 29 -2 48 1 l34 7 0 130 c0 106 3 131 15 135 8 4
30 21 48 39 l33 33 -42 26 c-22 14 -45 26 -50 26 -5 0 -33 -16 -61 -35 -29
-19 -55 -35 -59 -35 -4 0 -24 -16 -45 -35 -22 -19 -49 -35 -62 -35 -18 0 -16
3 13 18 30 15 35 22 35 52 0 33 2 35 35 38 19 2 47 13 62 23 15 11 34 17 40
14 7 -4 -5 10 -27 30 -38 35 -38 36 -10 24 17 -7 42 -21 57 -31z m-1066 -21
c-2 -7 -5 -3 -6 8 -2 17 -3 16 -10 -5 -6 -21 -8 -22 -14 -8 -5 10 -2 23 6 31
11 13 14 13 21 1 5 -8 6 -20 3 -27z m1754 7 c0 -9 -5 -14 -12 -12 -18 6 -21
28 -4 28 9 0 16 -7 16 -16z m-17 -18 c18 -14 15 -39 -8 -62 -11 -12 -47 -15
-40 -4 2 4 -7 18 -21 31 -22 21 -24 21 -19 4 6 -16 5 -17 -4 -5 -6 8 -11 10
-11 4 0 -7 11 -19 25 -28 14 -9 25 -23 25 -31 0 -20 -15 -19 -36 2 -24 25 -47
26 -34 3 6 -11 15 -22 22 -26 7 -5 8 -3 3 6 -6 9 -4 11 4 5 9 -5 10 -10 2 -18
-7 -7 -16 -6 -28 4 -16 12 -16 11 1 -8 15 -19 16 -25 6 -38 -7 -8 -18 -15 -24
-15 -6 0 -4 5 4 10 10 7 11 10 2 10 -7 0 -15 -7 -18 -15 -11 -28 -21 -15 -27
33 -5 48 10 82 38 82 7 0 20 11 29 25 9 14 25 25 36 25 10 0 22 5 25 10 8 14
26 12 48 -4z m-1773 -6 c0 -5 -4 -10 -10 -10 -5 0 -10 5 -10 10 0 6 5 10 10
10 6 0 10 -4 10 -10z m-275 -10 c-3 -5 -12 -10 -18 -10 -7 0 -6 4 3 10 19 12
23 12 15 0z m712 -40 c23 0 30 -6 39 -35 11 -33 10 -35 -13 -35 -32 0 -149
100 -131 111 7 5 25 -2 45 -17 17 -13 44 -24 60 -24z m-677 6 c0 -2 -8 -10
-17 -17 -16 -13 -17 -12 -4 4 13 16 21 21 21 13z m530 -202 l0 -133 28 -4 c22
-3 20 -4 -10 -6 l-38 -1 0 89 c0 81 -2 90 -20 96 -21 7 -28 25 -10 25 6 0 10
-4 10 -10 0 -5 5 -10 10 -10 6 0 10 20 10 44 0 34 -5 47 -22 60 -19 14 -18 14
10 -1 l32 -17 0 -132z m1931 133 c-10 -9 -11 -8 -5 6 3 10 9 15 12 12 3 -3 0
-11 -7 -18z m-2519 -11 c16 -22 15 -24 -24 -64 -22 -23 -45 -39 -50 -36 -12 7
28 51 54 60 22 7 24 30 2 38 -22 9 -36 -3 -29 -24 4 -14 1 -19 -12 -19 -10 1
-29 -3 -43 -7 -21 -6 -19 -1 18 34 48 48 60 51 84 18z m113 -26 c-16 -18 -17
-20 -2 -14 9 3 17 4 17 1 0 -12 -30 -15 -39 -3 -14 17 16 63 32 47 7 -7 5 -17
-8 -31z m327 17 c7 -7 28 -19 46 -26 18 -8 31 -15 29 -17 -6 -6 -78 26 -94 42
-8 8 -10 14 -4 14 5 0 16 -6 23 -13z m371 3 c75 0 77 -1 77 -24 0 -13 -6 -27
-12 -30 -10 -5 -10 -7 0 -12 7 -3 12 -24 12 -49 0 -25 -5 -45 -12 -48 -10 -4
-9 -8 2 -16 8 -5 12 -13 8 -16 -3 -3 -58 -11 -122 -17 -64 -7 -116 -16 -116
-20 0 -12 88 -10 95 2 7 12 95 14 95 2 0 -5 -10 -14 -22 -20 -42 -20 -95 -23
-140 -7 -23 8 -51 15 -60 15 -16 0 -18 13 -18 126 l0 127 68 -6 c37 -4 102 -7
145 -7z m182 -10 c3 -5 0 -22 -7 -37 -10 -22 -21 -29 -51 -31 -36 -3 -37 -2
-37 31 0 18 3 37 7 40 10 11 81 8 88 -3z m125 -30 l0 -41 -37 7 c-40 8 -62 28
-63 57 0 14 9 17 50 17 l50 0 0 -40z m985 5 c23 -23 35 -30 35 -20 0 9 9 15
22 15 l21 0 -23 -25 -23 -24 -43 36 c-43 34 -54 53 -34 53 5 0 25 -16 45 -35z
m-2033 -23 c10 -8 15 -19 12 -24 -3 -5 -16 0 -29 12 -27 26 -46 9 -21 -19 9
-10 16 -24 16 -32 0 -8 -6 -5 -16 9 -8 12 -19 22 -25 22 -15 0 -10 -37 7 -44
8 -3 12 -10 9 -16 -9 -14 -16 -12 -44 9 l-25 19 38 46 c37 46 44 48 78 18z
m1998 -12 c18 -23 30 -43 28 -46 -3 -2 -22 16 -42 41 -21 25 -33 45 -28 45 6
0 25 -18 42 -40z m-740 -39 c0 -69 -13 -98 -31 -70 -10 16 -12 123 -2 132 3 4
12 7 20 7 9 0 13 -18 13 -69z m30 -6 c0 -43 -4 -75 -10 -75 -6 0 -10 32 -10
75 0 43 4 75 10 75 6 0 10 -32 10 -75z m-178 8 l1 -58 6 55 c5 42 10 56 24 58
16 3 18 -3 15 -60 -3 -58 -5 -63 -27 -66 -13 -2 -35 2 -47 9 -42 22 -27 117
19 119 4 0 8 -26 9 -57z m96 -5 c-2 -48 -7 -63 -18 -63 -11 0 -16 13 -18 49
-4 58 2 76 23 76 13 0 15 -11 13 -62z m747 31 c-3 -3 4 -14 15 -24 23 -20 26
-45 8 -63 -18 -18 -42 -14 -56 9 -13 20 -12 21 11 15 14 -3 29 -2 32 4 4 6 -8
10 -29 10 -30 0 -37 4 -42 26 -8 32 21 58 47 41 10 -6 16 -14 14 -18z m-1580
-9 c22 -11 33 -20 25 -20 -8 0 -28 9 -45 20 -38 25 -30 25 20 0z m-747 -5 c8
-7 -89 -76 -98 -70 -14 9 6 35 26 35 14 0 18 12 15 38 -2 9 6 11 26 6 15 -4
29 -8 31 -9z m613 -25 c1 -8 2 -20 2 -27 0 -6 6 -9 13 -6 8 3 14 -1 14 -11 0
-9 -6 -16 -14 -16 -16 0 -29 27 -20 42 4 6 -2 6 -14 -1 -31 -17 -66 2 -44 23
4 4 8 12 8 17 1 5 2 11 3 13 3 10 51 -21 52 -34z m-177 14 c19 -18 20 -28 6
-55 -12 -21 -46 -26 -53 -6 -4 8 -11 5 -24 -11 -24 -30 -38 -16 -17 17 22 34
56 71 65 71 4 0 15 -7 23 -16z m796 -14 c28 -39 21 -100 -10 -100 -18 0 -20 7
-20 65 0 36 2 65 4 65 3 0 14 -14 26 -30z m190 -35 c0 -57 -2 -65 -19 -65 -31
0 -37 62 -10 100 13 16 24 30 26 30 2 0 3 -29 3 -65z m638 30 c-3 -3 -9 2 -12
12 -6 14 -5 15 5 6 7 -7 10 -15 7 -18z m194 -24 c23 -22 40 -42 38 -45 -10 -9
-58 6 -54 18 2 6 -2 20 -10 31 -23 30 -21 -2 3 -48 10 -20 15 -40 10 -43 -10
-6 -33 42 -44 94 -9 43 4 41 57 -7z m-1402 -8 c8 -7 -4 -4 -28 7 -23 11 -42
23 -42 25 0 7 53 -17 70 -32z m-785 -3 c13 -14 15 -24 8 -31 -7 -7 -14 -5 -23
6 -7 8 -17 15 -23 15 -7 0 -7 -4 1 -12 7 -7 12 -25 12 -40 0 -40 -42 -49 -76
-17 -29 27 -31 39 -4 39 13 0 20 -7 20 -20 0 -24 18 -27 27 -4 4 10 -1 22 -12
30 -18 13 -18 14 0 34 23 25 47 25 70 0z m420 12 c-25 -17 -47 -102 -27 -102
5 0 17 16 28 35 23 43 50 50 32 8 -20 -47 -46 -69 -66 -57 -23 15 -27 41 -11
73 19 38 30 51 43 51 7 0 7 -3 1 -8z m1683 -26 c2 -11 13 -27 25 -36 14 -12
18 -23 13 -35 -6 -17 -8 -17 -22 3 -19 27 -49 30 -39 5 11 -29 11 -35 -2 -40
-7 -3 -13 2 -13 11 0 9 -4 16 -8 16 -15 0 -32 62 -21 79 10 14 10 14 5 -1 -7
-23 16 -50 37 -42 22 8 22 40 0 54 -17 10 -16 10 2 8 11 -2 21 -12 23 -22z
m-1498 -16 c0 -5 -2 -10 -4 -10 -3 0 -8 5 -11 10 -3 6 -1 10 4 10 6 0 11 -4
11 -10z m-86 -10 c29 -11 36 -47 11 -56 -8 -4 -15 -14 -15 -23 0 -37 -46 -55
-70 -26 -9 11 -6 24 16 65 15 27 28 50 30 50 1 0 14 -4 28 -10z m776 -11 c9
-5 -9 -8 -50 -8 -63 0 -64 0 -35 14 29 13 55 11 85 -6z m734 -21 c9 -17 16
-38 16 -46 0 -17 -28 -52 -42 -52 -4 0 -20 26 -33 57 -27 60 -23 73 22 73 14
0 27 -11 37 -32z m-911 15 c-7 -2 -21 -2 -30 0 -10 3 -4 5 12 5 17 0 24 -2 18
-5z m1376 -40 c17 -21 31 -44 31 -53 -1 -44 -67 -70 -77 -30 -3 11 -11 20 -18
20 -7 0 -20 11 -29 25 -15 23 -15 26 7 49 31 34 51 31 86 -11z m-1929 -27
c-16 -37 -16 -45 -4 -50 8 -3 14 -12 14 -21 0 -14 -3 -14 -29 -1 l-28 15 24
51 c29 62 50 67 23 6z m710 -22 l0 -67 -55 6 c-30 3 -59 8 -65 12 -5 3 -10 28
-10 55 0 54 3 56 88 59 l42 1 0 -66z m-1172 45 c28 1 28 -9 0 -45 -13 -17 -15
-23 -6 -16 40 32 90 -5 73 -54 -21 -57 -76 -57 -83 0 -4 28 -12 32 -28 16 -13
-13 -64 25 -64 48 0 27 42 64 65 57 11 -4 30 -6 43 -6z m1239 -76 c-2 -16 -4
-3 -4 27 0 30 2 43 4 28 2 -16 2 -40 0 -55z m579 41 c13 -28 14 -40 5 -60 -9
-20 -16 -24 -34 -18 -42 12 -90 74 -58 74 5 0 11 9 14 20 3 13 14 20 31 20 19
0 29 -9 42 -36z m-1293 -35 c-14 -28 -26 -49 -29 -47 -5 6 16 81 28 95 23 29
24 0 1 -48z m103 17 c3 -8 4 -23 1 -33 -4 -16 -6 -15 -12 5 -5 16 -14 22 -29
20 -16 -2 -22 -11 -24 -40 -3 -40 7 -48 28 -23 7 8 16 15 21 15 18 0 9 -20
-16 -36 -24 -16 -27 -16 -45 1 -21 19 -27 45 -10 45 6 0 10 11 10 23 0 13 3
27 7 30 12 13 64 7 69 -7z m1079 -6 c3 -6 -1 -7 -10 -4 -24 10 -46 -15 -40
-45 5 -23 4 -22 -12 7 -15 29 -15 34 -3 42 20 13 57 13 65 0z m560 -17 c5 -13
15 -23 21 -23 7 0 14 -10 18 -22 9 -34 7 -48 -5 -48 -7 0 -18 -8 -25 -17 -15
-21 -40 -11 -58 23 -6 10 -13 21 -16 24 -32 32 -33 41 -9 66 28 30 60 28 74
-3z m-1565 -7 c0 -48 -13 -116 -23 -116 -5 0 -7 9 -4 21 7 27 -20 37 -38 13
-8 -11 -15 -14 -15 -8 0 6 9 23 20 36 11 14 24 37 30 52 12 32 30 34 30 2z
m124 -12 c26 -10 18 -27 -9 -20 -14 4 -25 4 -25 2 0 -16 14 -36 26 -36 8 0 14
-5 14 -11 0 -7 -10 -9 -25 -5 -22 6 -26 3 -31 -24 -4 -16 -10 -30 -15 -30 -12
0 -12 37 0 44 4 3 11 24 15 46 6 40 17 47 50 34z m761 -28 c8 -19 19 -37 25
-41 5 -3 10 -13 10 -22 0 -15 -2 -14 -18 0 -25 23 -32 21 -32 -8 0 -16 -6 -25
-15 -25 -11 0 -15 11 -15 41 0 36 2 40 15 29 20 -16 26 -10 18 18 -3 12 -12
22 -19 22 -8 0 -14 5 -14 10 0 24 32 7 45 -24z m153 6 c4 -25 -46 -56 -68 -42
-8 5 -11 13 -6 17 5 4 11 2 13 -4 3 -10 10 -10 25 -2 15 8 18 17 13 36 -4 18
-2 24 7 21 7 -3 14 -14 16 -26z m-1565 -38 l-1 -49 27 33 c52 61 43 13 -13
-70 -25 -37 -36 -27 -36 33 0 56 -10 63 -27 18 -7 -19 -16 -28 -23 -24 -14 8
-10 20 25 75 33 53 50 47 48 -16z m1337 22 c0 -19 -4 -38 -10 -41 -5 -3 -10
-17 -10 -31 0 -34 -15 -30 -31 9 -7 17 -16 34 -20 37 -3 3 -9 15 -13 28 -11
34 11 27 34 -10 l20 -33 0 38 c0 26 4 37 15 37 10 0 15 -10 15 -34z m-590 4
c0 -16 -5 -19 -24 -14 -13 3 -27 1 -30 -5 -5 -7 3 -11 18 -11 32 0 35 -17 4
-22 -31 -4 -33 -25 -3 -32 38 -10 32 -30 -7 -22 -17 3 -33 8 -36 10 -2 2 -1
29 3 60 7 56 8 56 41 56 27 0 34 -4 34 -20z m60 0 c0 -5 -6 -10 -14 -10 -7 0
-16 -14 -20 -31 -9 -49 -7 -59 12 -59 23 0 47 42 39 69 -3 12 -1 19 4 15 5 -3
9 -21 9 -39 0 -38 -20 -55 -64 -55 -21 0 -26 5 -26 24 0 14 5 28 10 31 6 3 10
19 10 36 0 22 5 29 20 29 11 0 20 -4 20 -10z m435 -22 c3 -15 8 -41 11 -58 3
-18 1 -30 -5 -30 -5 0 -14 19 -18 43 -7 33 -13 43 -32 45 -22 4 -23 2 -17 -40
3 -23 2 -50 -4 -58 -7 -11 -10 -8 -10 17 0 17 -4 35 -10 38 -5 3 -10 15 -10
26 0 11 -4 17 -10 14 -5 -3 -10 -2 -10 2 0 13 42 29 77 29 27 0 33 -4 38 -28z
m739 -12 c20 -24 36 -51 36 -59 0 -24 -36 -49 -67 -45 -22 2 -29 9 -31 31 -2
15 -7 27 -12 27 -5 0 -14 9 -21 21 -9 17 -7 25 12 45 12 13 28 24 35 24 6 0
28 -20 48 -44z m-1688 3 c96 -40 114 -52 102 -66 -14 -17 -43 -16 -58 2 -7 8
-17 15 -22 15 -5 0 -24 16 -42 35 -19 19 -32 35 -31 35 1 0 24 -9 51 -21z
m639 11 c-3 -5 -15 -10 -26 -10 -10 0 -19 -4 -19 -10 0 -5 9 -10 20 -10 29 0
25 -19 -7 -32 -27 -11 -27 -12 -5 -15 14 -3 22 -11 22 -24 0 -18 -4 -20 -32
-14 -18 4 -34 9 -36 10 -2 2 -1 28 3 59 l7 56 40 0 c23 0 37 -4 33 -10z m83
-2 c13 -17 15 -118 2 -118 -6 0 -10 11 -10 25 0 38 -40 35 -41 -2 -1 -22 -3
-20 -10 12 -4 22 -8 52 -8 68 -1 23 3 27 28 27 16 0 33 -6 39 -12z m67 -5
c-20 -50 -19 -56 7 -50 22 6 27 3 32 -19 9 -34 1 -41 -23 -20 -19 17 -20 17
-31 -4 -8 -15 -15 -19 -22 -12 -6 6 -6 16 1 28 5 11 13 36 16 57 3 20 11 37
17 37 6 0 7 -7 3 -17z m20 -13 c3 -5 1 -10 -4 -10 -6 0 -11 5 -11 10 0 6 2 10
4 10 3 0 8 -4 11 -10z m716 -62 c7 -18 15 -35 19 -38 3 -3 11 -17 17 -32 18
-41 -1 -34 -23 8 -15 28 -24 34 -41 31 -23 -4 -31 7 -13 18 6 3 10 15 10 26 0
29 16 23 31 -13z m-1703 -11 c4 -32 -21 -67 -47 -67 -9 0 -23 13 -32 28 -14
26 -14 30 0 50 11 15 25 21 46 19 25 -2 31 -7 33 -30z m1462 -1 c0 -19 -48
-30 -66 -15 -19 16 -18 24 9 36 25 12 57 0 57 -21z m-1132 18 c25 -7 29 -26 7
-44 -18 -15 -65 -5 -65 13 0 13 19 37 30 37 3 0 15 -3 28 -6z m-284 -19 c3 -8
2 -23 -1 -32 -5 -13 -3 -15 13 -9 30 12 39 12 37 0 -1 -6 8 -9 20 -7 34 7 61
-28 52 -66 -9 -41 -40 -50 -71 -20 -25 23 -33 59 -12 59 6 0 8 3 5 7 -4 4 -21
-3 -37 -16 -17 -12 -35 -19 -41 -16 -9 6 -3 88 8 108 7 12 20 8 27 -8z m361
-5 c3 -5 28 -12 56 -16 37 -5 49 -10 45 -20 -15 -37 -17 -49 -5 -29 16 27 29
35 57 35 27 0 29 -21 3 -44 -16 -14 -30 -16 -75 -11 -65 8 -75 18 -50 48 11
13 6 10 -12 -6 -31 -28 -50 -29 -82 -4 -10 8 -8 15 9 34 24 24 44 29 54 13z
m978 -8 c19 -20 13 -32 -14 -32 -9 0 -19 -6 -22 -12 -3 -9 -12 -5 -30 11 -25
22 -25 25 -9 37 24 19 56 17 75 -4z m-89 -21 c22 -25 13 -41 -22 -41 -33 0
-62 46 -33 53 31 9 38 7 55 -12z m-463 -41 l49 0 0 -52 c0 -34 6 -58 17 -70
31 -35 42 -22 46 55 l3 72 2 -71 c1 -50 -2 -75 -11 -83 -21 -17 -138 -17 -164
0 -21 12 -23 22 -23 87 0 64 2 73 16 68 9 -3 38 -6 65 -6z m-586 -19 c54 -24
60 -28 63 -44 4 -18 -25 -67 -40 -67 -5 0 -4 8 2 19 12 23 13 51 2 51 -4 0
-16 -13 -25 -30 -19 -32 -44 -42 -32 -12 14 37 17 72 6 72 -6 0 -11 -9 -11
-19 0 -10 -9 -29 -19 -42 -17 -21 -20 -22 -26 -7 -7 17 32 100 44 95 3 -2 20
-9 36 -16z m112 -2 c6 -6 9 -17 7 -24 -3 -7 4 -15 15 -18 42 -11 18 -97 -26
-97 -36 0 -44 21 -32 88 11 63 16 71 36 51z m993 -3 c0 -2 4 -27 10 -55 8 -44
7 -55 -6 -68 -13 -13 -19 -14 -40 -3 -45 25 -43 96 3 94 15 0 19 5 15 18 -2
10 1 18 7 18 6 0 11 -2 11 -4z m127 -22 c30 -32 26 -55 -10 -72 -25 -12 -31
-12 -48 4 -23 21 -24 42 -3 72 20 29 31 28 61 -4z m-1003 -33 c3 -5 15 -7 26
-4 43 11 80 -63 48 -95 -18 -18 -39 -15 -65 10 -25 24 -30 44 -10 51 6 3 2 6
-10 6 -16 1 -23 -7 -28 -29 -4 -16 -13 -30 -21 -30 -16 0 -12 36 8 78 11 22
42 30 52 13z"/>
<path d="M1850 3360 c0 -5 5 -10 10 -10 6 0 10 5 10 10 0 6 -4 10 -10 10 -5 0
-10 -4 -10 -10z"/>
<path d="M1871 3339 c-2 -11 28 -78 84 -194 29 -60 55 -117 58 -125 5 -13 6
-13 6 1 1 8 -19 55 -44 105 -24 49 -45 97 -45 106 0 9 -4 18 -9 20 -4 2 -18
23 -29 48 -11 25 -21 42 -21 39z"/>
<path d="M1880 3170 c0 -15 5 -20 18 -18 9 2 17 10 17 18 0 8 -8 16 -17 18
-13 2 -18 -3 -18 -18z"/>
<path d="M1880 3050 c0 -21 8 -24 34 -14 13 5 14 9 5 20 -17 21 -39 17 -39 -6z"/>
<path d="M1954 3015 c-4 -9 -2 -21 4 -27 15 -15 44 -1 40 19 -4 23 -36 29 -44
8z"/>
<path d="M1877 2941 c-6 -22 0 -31 20 -31 9 0 13 8 11 22 -4 28 -24 34 -31 9z"/>
<path d="M2017 2904 c-14 -15 -6 -34 14 -34 14 0 19 5 17 17 -3 18 -20 27 -31
17z"/>
<path d="M1740 2804 c-19 -3 -44 -9 -55 -14 -11 -5 -44 -14 -73 -20 -29 -7
-69 -23 -89 -37 -20 -14 -47 -29 -60 -34 -13 -5 -23 -13 -23 -19 0 -5 -7 -10
-15 -10 -17 0 -145 -125 -145 -141 0 -6 -11 -25 -24 -42 -29 -38 -66 -121 -66
-147 0 -10 -4 -20 -9 -22 -15 -5 -43 -195 -36 -246 10 -75 26 -145 41 -179 8
-17 14 -36 14 -42 0 -15 33 -85 43 -89 4 -2 7 -8 7 -14 0 -17 84 -109 157
-172 80 -69 169 -117 253 -137 30 -7 109 -13 175 -13 137 0 203 13 294 58 126
61 299 237 331 336 8 25 17 47 21 50 14 11 43 170 43 240 -1 250 -132 486
-335 600 -15 8 -45 25 -66 36 -21 12 -58 25 -83 29 -25 4 -50 11 -56 16 -12
10 -191 19 -244 13z m20 -44 c6 -11 21 -20 35 -20 33 0 40 -16 14 -33 -20 -15
-20 -16 -4 -41 21 -31 15 -42 -13 -27 -24 13 -67 0 -75 -21 -3 -7 -6 6 -6 30
-1 23 -5 42 -10 42 -5 0 -16 3 -24 6 -27 10 -40 -31 -22 -66 l16 -30 -30 0
c-20 0 -34 -7 -41 -20 -14 -26 -26 -25 -34 3 -6 25 -42 51 -56 42 -17 -11 -11
-48 12 -72 l21 -23 -21 0 c-14 0 -27 -11 -37 -30 -19 -37 -28 -37 -49 -5 -10
16 -26 25 -42 25 -36 0 -29 -38 14 -66 l32 -22 -30 -10 c-25 -9 -30 -17 -30
-42 0 -30 0 -30 -24 -15 -22 15 -76 12 -76 -4 1 -17 30 -40 61 -48 l34 -9 -28
-19 c-24 -15 -27 -22 -21 -48 6 -31 6 -31 -18 -15 -20 13 -27 14 -42 2 -11 -7
-24 -15 -30 -17 -7 -3 -4 -12 8 -26 16 -17 26 -20 55 -15 l35 7 -17 -26 c-15
-23 -15 -29 -1 -62 l15 -37 -31 7 c-23 5 -37 2 -50 -10 -19 -17 -19 -18 3 -35
18 -15 25 -16 37 -6 38 32 42 30 35 -13 -5 -32 -4 -41 8 -41 8 0 20 -6 26 -14
9 -11 5 -15 -19 -20 -17 -3 -33 -14 -37 -23 -4 -10 -10 -21 -15 -24 -5 -3 3
-11 17 -19 23 -12 28 -11 49 9 l24 23 7 -32 c4 -20 15 -34 31 -40 31 -12 31
-28 -1 -36 -24 -6 -45 -31 -45 -53 0 -6 15 -11 34 -11 28 0 36 5 44 28 l9 27
13 -27 c8 -17 24 -29 42 -33 l30 -7 -21 -22 c-27 -29 -28 -76 -2 -76 25 0 51
26 51 51 0 26 15 24 34 -6 11 -16 26 -25 43 -25 25 0 26 0 8 -20 -15 -16 -16
-25 -7 -44 10 -22 14 -23 36 -13 19 9 26 20 26 41 0 28 0 28 25 12 19 -12 30
-14 44 -6 34 18 42 12 36 -24 -4 -19 -2 -43 4 -55 11 -19 9 -21 -14 -21 -16 0
-35 -11 -49 -27 l-23 -26 -6 31 c-5 24 -13 33 -34 37 -15 4 -41 13 -56 22 -27
14 -30 14 -57 -12 l-29 -27 -3 38 c-3 33 -9 41 -51 67 -41 25 -51 27 -78 18
-28 -10 -30 -9 -24 11 14 43 -51 128 -98 128 -28 0 -29 1 -15 22 12 18 13 26
2 47 -7 15 -17 39 -23 54 -6 16 -24 34 -42 41 l-31 13 21 15 c21 15 22 19 11
79 -8 44 -18 70 -33 82 -15 13 -18 20 -9 24 27 11 39 34 46 85 5 46 3 55 -14
67 -29 19 -25 29 15 37 27 5 37 12 41 33 4 14 13 37 21 50 9 14 11 26 5 30 -5
3 -12 16 -16 29 -7 19 -4 22 22 22 41 0 106 71 98 106 -9 36 1 46 28 29 20
-13 25 -13 35 -2 6 8 29 22 51 32 35 16 40 22 40 52 0 37 6 40 36 19 38 -27
144 10 144 51 0 20 18 16 30 -7z m180 7 c0 -39 102 -77 144 -53 12 6 24 16 28
21 4 6 8 -9 8 -32 0 -25 5 -43 11 -43 6 0 30 -13 54 -29 39 -26 45 -28 63 -15
25 17 35 5 26 -30 -8 -35 57 -106 97 -106 33 0 33 1 19 -35 -8 -20 -6 -39 7
-75 15 -42 22 -49 50 -55 38 -7 42 -19 13 -35 -18 -10 -20 -17 -14 -63 5 -42
12 -57 38 -79 20 -18 26 -28 16 -28 -30 -1 -39 -17 -50 -84 -10 -65 -10 -69
10 -83 21 -15 21 -15 -12 -31 -40 -21 -75 -103 -58 -139 9 -21 7 -23 -18 -23
-19 0 -40 -12 -66 -39 -34 -35 -37 -42 -30 -76 6 -36 6 -37 -15 -25 -25 13
-51 6 -103 -27 -33 -20 -38 -28 -38 -60 l0 -37 -29 28 c-28 27 -31 27 -58 13
-15 -9 -41 -18 -56 -22 -21 -4 -29 -13 -34 -37 l-6 -31 -23 26 c-14 17 -33 27
-49 27 l-26 0 20 27 c20 24 20 28 5 50 -20 31 -12 40 21 25 21 -10 30 -9 50 4
25 16 25 16 25 -12 0 -21 7 -32 25 -40 21 -10 26 -9 39 11 13 20 13 24 -7 44
l-21 21 36 0 c30 0 37 4 42 25 8 33 22 32 31 -2 7 -31 21 -43 48 -43 22 0 24
52 2 70 -21 18 -19 29 8 35 13 4 30 18 39 32 l15 25 7 -26 c5 -22 12 -26 41
-26 19 0 35 4 35 9 0 24 -16 44 -43 56 l-31 13 32 16 c26 13 32 23 32 48 l0
31 25 -23 c22 -21 27 -22 50 -10 23 12 24 16 12 34 -8 12 -29 26 -48 32 l-34
12 28 13 c26 12 28 16 21 52 -6 41 -1 43 36 11 12 -10 19 -9 40 8 24 20 24 20
5 35 -13 9 -31 12 -53 8 l-33 -6 15 36 c14 33 14 39 -1 62 l-18 26 34 -6 c25
-5 39 -3 53 9 24 23 23 30 -10 47 -25 12 -31 12 -51 -1 -22 -15 -22 -14 -15
12 5 23 2 32 -22 51 l-28 22 37 7 c22 4 41 15 48 27 13 24 12 25 -22 34 -17 4
-30 1 -38 -9 -20 -24 -31 -19 -31 15 0 24 -6 32 -30 41 l-30 10 32 22 c42 28
50 66 15 66 -15 0 -33 -10 -44 -25 -19 -26 -31 -23 -49 10 -6 11 -21 22 -33
25 l-23 5 21 19 c23 21 29 76 8 76 -18 0 -57 -38 -57 -55 0 -21 -18 -18 -30 5
-7 13 -21 20 -40 20 -28 0 -29 1 -18 23 7 12 16 24 20 27 4 3 -1 16 -11 29
-15 20 -21 22 -39 12 -16 -9 -22 -22 -23 -49 0 -20 -3 -31 -6 -24 -8 21 -51
34 -74 22 -17 -10 -18 -9 -7 16 10 22 9 27 -5 35 -27 16 -22 49 8 49 14 0 29
8 35 20 12 23 30 27 30 7z m-14 -177 c60 -11 143 -48 180 -81 11 -11 24 -19
30 -19 15 0 88 -82 116 -130 14 -25 31 -78 38 -118 8 -40 17 -75 22 -78 11 -7
10 -92 -2 -99 -5 -3 -10 -18 -10 -33 0 -39 -29 -146 -40 -150 -6 -2 -10 -10
-10 -18 0 -26 -133 -148 -198 -181 -36 -19 -85 -36 -117 -39 -31 -4 -58 -11
-61 -15 -7 -12 -71 -12 -78 0 -3 4 -31 11 -61 15 -57 6 -157 52 -185 84 -9 9
-24 22 -35 28 -10 6 -23 19 -29 30 -6 10 -17 23 -23 27 -7 4 -13 12 -13 18 0
5 -15 32 -34 59 -28 40 -36 65 -46 137 -27 192 39 366 178 471 24 18 61 41 81
50 20 9 38 20 41 23 7 9 105 26 156 28 22 0 67 -4 100 -9z"/>
<path d="M1710 2541 c-36 -9 -80 -27 -98 -39 -45 -33 -40 -37 8 -7 32 20 101
44 132 45 4 0 0 -13 -10 -29 -13 -23 -26 -31 -59 -36 -24 -3 -43 -10 -43 -14
0 -5 16 -21 35 -35 30 -23 34 -31 29 -54 -4 -15 -11 -33 -17 -40 -19 -25 3
-24 46 1 l44 26 33 -24 c19 -14 35 -24 36 -22 2 1 -2 22 -7 46 -10 47 -7 55
32 75 36 18 33 33 -9 40 -38 6 -72 37 -72 66 0 28 199 -6 262 -46 24 -15 45
-30 48 -33 3 -4 20 -17 38 -30 17 -12 32 -29 32 -36 0 -8 8 -20 18 -27 10 -7
21 -21 25 -30 5 -14 1 -18 -16 -18 -41 0 -70 23 -82 65 l-11 40 -25 -37 c-21
-34 -29 -38 -66 -38 -24 0 -43 -2 -43 -5 0 -3 11 -23 25 -44 20 -33 23 -44 15
-73 -6 -18 -10 -34 -10 -35 0 -2 18 4 40 13 l41 17 41 -33 40 -33 -7 49 c-6
49 -6 50 34 82 l40 32 12 -42 c7 -24 16 -47 21 -53 12 -13 10 -225 -2 -225 -5
0 -10 -9 -10 -20 0 -12 -11 -43 -25 -70 -34 -68 -24 -63 17 8 l33 57 0 143 c0
84 -4 146 -10 150 -6 4 -20 28 -33 54 -12 25 -29 49 -37 52 -8 3 -15 11 -15
18 0 18 -53 66 -116 106 -35 22 -78 37 -130 48 -92 17 -135 16 -224 -5z"/>
<path d="M1526 2439 c-31 -32 -48 -59 -101 -165 -35 -69 -36 -73 -32 -170 l3
-99 2 100 c2 107 -1 99 98 285 7 14 27 34 44 45 16 11 30 23 30 28 0 13 -14 5
-44 -24z"/>
<path d="M1550 2198 c-12 -34 -18 -37 -63 -43 l-49 -7 32 -33 c29 -30 31 -36
25 -79 -4 -25 -5 -46 -3 -46 2 0 19 11 37 24 33 24 56 25 76 1 6 -6 18 -14 29
-18 17 -7 18 -3 11 39 -6 43 -4 49 25 79 l32 33 -51 7 c-31 4 -51 12 -51 20 0
7 -8 23 -19 36 l-18 23 -13 -36z"/>
<path d="M1869 2199 c-15 -35 -28 -44 -71 -54 -34 -7 -28 -26 13 -44 30 -13
30 -15 24 -63 -8 -55 -8 -55 47 -14 27 19 29 19 63 3 20 -9 38 -17 41 -17 7 0
-7 53 -19 68 -7 9 -1 22 23 47 l34 35 -47 0 c-26 0 -47 3 -47 8 -1 4 -11 19
-23 35 l-23 28 -15 -32z"/>
<path d="M1400 1990 c0 -5 4 -10 9 -10 4 0 14 -20 21 -45 7 -25 22 -56 34 -69
11 -14 29 -35 39 -48 10 -13 6 -3 -9 22 -15 25 -30 47 -34 50 -4 3 -15 29 -24
58 -16 46 -36 70 -36 42z"/>
<path d="M1896 1920 c-15 -39 -18 -40 -62 -40 l-46 0 32 -40 c28 -35 31 -44
25 -84 -7 -42 -6 -44 14 -39 12 3 21 9 21 14 0 23 46 26 82 5 20 -11 34 -24
32 -28 -2 -3 -29 -10 -59 -13 -30 -4 -55 -11 -55 -16 0 -5 -20 -9 -45 -9 -25
0 -45 4 -45 9 0 5 -23 11 -51 15 -44 6 -115 32 -129 47 -3 3 -23 15 -45 28
-22 12 -31 15 -20 7 11 -9 27 -23 37 -30 22 -19 107 -56 127 -56 9 0 23 -6 30
-12 16 -17 193 -17 199 0 2 7 12 12 21 12 25 0 121 41 121 51 0 13 -10 11 -26
-6 -26 -25 -43 -17 -54 26 -11 41 -11 43 26 80 l38 39 -52 0 c-52 0 -52 0 -68
40 -9 22 -20 40 -24 40 -4 0 -15 -18 -24 -40z"/>
<path d="M2135 1796 c-47 -48 -40 -48 13 -1 20 16 50 58 40 54 -2 -1 -25 -24
-53 -53z"/>
<path d="M1360 2680 c0 -5 5 -10 10 -10 6 0 10 5 10 10 0 6 -4 10 -10 10 -5 0
-10 -4 -10 -10z"/>
<path d="M1319 2643 l-24 -28 28 24 c25 23 32 31 24 31 -2 0 -14 -12 -28 -27z"/>
<path d="M1146 2552 c-3 -3 -6 -12 -6 -19 0 -17 42 -14 47 3 4 12 -32 26 -41
16z"/>
<path d="M1020 2520 c0 -11 7 -20 15 -20 8 0 15 9 15 20 0 11 -7 20 -15 20 -8
0 -15 -9 -15 -20z"/>
<path d="M842 2508 c-16 -16 -15 -25 1 -31 21 -8 39 7 31 26 -7 20 -16 21 -32
5z"/>
<path d="M951 2466 c-10 -12 -8 -17 7 -25 22 -12 32 -6 32 21 0 21 -23 24 -39
4z"/>
<path d="M1062 2418 c2 -12 11 -24 21 -26 14 -3 18 1 15 20 -2 12 -11 24 -21
26 -14 3 -18 -1 -15 -20z"/>
<path d="M860 2365 c13 -14 26 -25 28 -25 3 0 -5 11 -18 25 -13 14 -26 25 -28
25 -3 0 5 -11 18 -25z"/>
<path d="M1250 1674 c0 -5 21 -32 46 -59 l46 -50 -43 55 c-24 30 -44 57 -46
59 -2 2 -3 0 -3 -5z"/>
<path d="M1200 1595 c0 -8 7 -15 15 -15 8 0 15 7 15 15 0 8 -7 15 -15 15 -8 0
-15 -7 -15 -15z"/>
<path d="M1280 1484 c0 -10 7 -14 22 -12 32 5 35 28 4 28 -17 0 -26 -5 -26
-16z"/>
<path d="M1172 1473 c5 -26 38 -29 38 -4 0 15 -6 21 -21 21 -14 0 -19 -5 -17
-17z"/>
<path d="M2242 1413 c2 -10 13 -19 26 -21 17 -3 22 2 22 17 0 16 -6 21 -26 21
-19 0 -25 -5 -22 -17z"/>
<path d="M1222 1408 c-18 -18 -15 -38 7 -38 26 0 33 13 18 34 -10 13 -15 14
-25 4z"/>
<path d="M2110 1359 c0 -15 5 -20 22 -17 34 5 37 38 4 38 -20 0 -26 -5 -26
-21z"/>
<path d="M2320 1315 c0 -8 7 -15 15 -15 8 0 15 7 15 15 0 8 -7 15 -15 15 -8 0
-15 -7 -15 -15z"/>
<path d="M1143 1304 c-9 -23 13 -40 32 -24 12 10 13 16 4 26 -15 18 -28 18
-36 -2z"/>
<path d="M2220 1299 c0 -15 5 -20 22 -17 34 5 37 38 4 38 -20 0 -26 -5 -26
-21z"/>
<path d="M2160 1292 c0 -4 21 -18 48 -30 84 -38 237 -123 240 -133 4 -11 22
-12 22 0 0 4 -43 30 -95 56 -52 27 -95 51 -95 54 0 4 -22 15 -50 26 -27 11
-50 23 -50 27 0 4 -4 8 -10 8 -5 0 -10 -4 -10 -8z"/>
<path d="M2387 1223 c-13 -12 -7 -23 13 -23 11 0 20 7 20 15 0 15 -21 21 -33
8z"/>
<path d="M2550 1126 c0 -23 16 -27 17 -5 1 10 -2 19 -8 19 -5 0 -9 -6 -9 -14z"/>
<path d="M2500 1106 c14 -7 36 -16 50 -20 14 -3 7 3 -15 13 -45 22 -73 27 -35
7z"/>
<path d="M1726 3152 c-3 -5 18 -31 47 -58 28 -27 39 -34 23 -16 -17 17 -24 32
-18 32 21 0 13 15 -17 33 -16 10 -32 14 -35 9z m44 -32 c0 -6 -9 -2 -20 7 -11
10 -20 19 -20 21 0 1 9 -2 20 -8 11 -6 20 -15 20 -20z"/>
<path d="M1724 3098 c11 -7 32 -26 47 -42 15 -15 33 -26 41 -23 9 4 8 6 -4 6
-10 1 -22 10 -28 21 -6 11 -25 27 -43 35 -18 8 -23 10 -13 3z"/>
<path d="M1714 2993 c11 -13 25 -23 32 -23 7 0 18 -9 24 -20 6 -11 20 -25 32
-31 14 -7 9 1 -14 25 -19 20 -39 36 -43 36 -5 0 -18 8 -29 18 -21 17 -21 17
-2 -5z"/>
<path d="M2901 2954 c0 -11 3 -14 6 -6 3 7 2 16 -1 19 -3 4 -6 -2 -5 -13z"/>
<path d="M2964 2418 l-19 -23 23 19 c12 11 22 21 22 23 0 8 -8 2 -26 -19z"/>
<path d="M2840 2375 c0 -16 9 -19 34 -9 20 8 11 24 -15 24 -10 0 -19 -7 -19
-15z"/>
<path d="M2821 2283 l-106 -107 110 104 c61 58 112 106 114 107 2 2 1 3 -4 3
-4 0 -56 -48 -114 -107z"/>
<path d="M2736 2363 c-12 -12 -6 -43 9 -43 8 0 15 9 15 19 0 21 -13 34 -24 24z"/>
<path d="M2613 2314 c-10 -26 14 -41 35 -21 15 16 15 19 2 27 -21 14 -30 12
-37 -6z"/>
<path d="M2712 2263 c-17 -7 -5 -23 19 -23 10 0 19 7 19 15 0 15 -14 18 -38 8z"/>
<path d="M2620 2170 c0 -11 7 -23 16 -27 20 -8 36 17 22 34 -16 20 -38 15 -38
-7z"/>
<path d="M2679 2143 l-24 -28 28 24 c15 14 27 26 27 28 0 8 -8 1 -31 -24z"/>
<path d="M2612 2418 c7 -15 15 -23 17 -17 2 6 -4 18 -13 27 -15 15 -15 15 -4
-10z"/>
<path d="M2680 2544 c1 -5 19 -29 41 -53 22 -24 37 -37 33 -28 -5 13 -2 16 9
11 9 -3 18 -13 20 -22 4 -15 5 -15 6 0 0 10 -8 22 -19 28 -11 6 -27 24 -35 40
-9 17 -21 30 -28 30 -8 0 -7 -4 3 -10 8 -5 11 -13 6 -17 -4 -4 -14 1 -22 11
-8 11 -14 16 -14 10z m60 -49 c14 -19 14 -19 -2 -6 -10 7 -18 18 -18 24 0 6 1
8 3 6 1 -2 9 -13 17 -24z"/>
<path d="M2630 2511 c0 -6 9 -15 20 -21 11 -6 27 -24 35 -40 9 -17 21 -30 28
-29 9 0 9 2 0 6 -7 2 -13 10 -13 17 0 7 -16 27 -35 45 -19 17 -35 27 -35 22z"/>
<path d="M2720 2456 c0 -8 4 -17 9 -20 5 -4 7 3 4 14 -6 23 -13 26 -13 6z"/>
<path d="M680 2476 c0 -10 86 -96 96 -96 4 0 17 -8 28 -17 21 -18 21 -18 2 5
-11 12 -25 22 -33 22 -20 0 -16 20 5 21 13 0 14 2 2 6 -8 3 -27 17 -42 31 -16
14 -28 22 -28 18 0 -5 -7 -3 -15 4 -8 7 -15 9 -15 6z m76 -57 c3 -6 -5 -3 -20
6 -14 10 -26 19 -26 22 0 7 39 -17 46 -28z"/>
<path d="M860 2303 c13 -18 25 -33 27 -33 8 0 -17 38 -33 51 -11 9 -9 2 6 -18z"/>
<path d="M915 2250 c21 -25 75 -80 80 -80 2 0 5 6 8 14 3 8 -4 22 -16 33 l-22
18 19 -22 c33 -39 1 -25 -45 20 -24 23 -35 31 -24 17z"/>
<path d="M1016 2172 c-3 -5 7 -20 22 -33 25 -22 25 -22 8 -1 -20 23 -10 32 12
10 6 -6 14 -9 17 -7 2 3 -9 13 -25 22 -16 10 -31 13 -34 9z"/>
<path d="M990 2318 c0 -2 9 -11 20 -21 11 -9 20 -13 20 -7 0 5 -9 14 -20 20
-11 6 -20 9 -20 8z"/>
<path d="M920 1070 c0 -5 5 -10 10 -10 6 0 10 5 10 10 0 6 -4 10 -10 10 -5 0
-10 -4 -10 -10z"/>
<path d="M891 1005 c-13 -13 -19 -25 -13 -29 12 -7 62 31 62 47 0 8 -3 7 -9
-2 -5 -7 -10 -9 -12 -4 -2 6 -15 0 -28 -12z m29 0 c0 -2 -10 -9 -22 -15 -22
-11 -22 -10 -4 4 21 17 26 19 26 11z"/>
<path d="M2407 1627 c-5 -14 70 -93 80 -83 3 3 2 6 -4 6 -6 0 -19 12 -28 27
-16 23 -16 25 -1 20 23 -9 20 -4 -13 21 -21 15 -31 18 -34 9z m28 -25 c-3 -3
-11 0 -18 7 -9 10 -8 11 6 5 10 -3 15 -9 12 -12z"/>
<path d="M2312 1533 c-10 -4 -6 -13 14 -34 15 -16 31 -29 35 -29 4 0 31 -25
60 -55 28 -30 56 -55 61 -55 6 0 17 -8 26 -18 10 -10 13 -13 9 -6 -4 7 -6 17
-5 24 2 6 -6 17 -16 23 -10 7 -42 36 -71 65 -28 28 -56 52 -62 52 -6 0 -17 9
-24 19 -8 10 -20 17 -27 14z m116 -101 c28 -29 55 -52 61 -52 5 0 13 -4 16
-10 17 -27 -36 9 -82 57 -28 29 -56 53 -61 53 -5 0 -15 7 -22 15 -31 37 41
-14 88 -63z"/>
<path d="M1444 1418 c32 -38 61 -68 63 -68 7 0 -71 92 -98 115 -13 11 3 -10
35 -47z"/>
<path d="M1536 1400 c21 -22 41 -40 45 -40 4 0 -10 18 -32 40 -22 22 -42 40
-45 40 -3 0 11 -18 32 -40z"/>
<path d="M1382 1287 c7 -17 14 -23 19 -16 4 6 11 9 17 5 6 -4 8 2 5 14 -6 24
-23 27 -23 3 0 -15 -2 -14 -15 3 -14 18 -14 17 -3 -9z"/>
<path d="M2314 1014 l-34 -35 0 -130 c0 -149 -1 -148 92 -103 94 45 102 51
136 100 52 77 54 85 19 111 -17 13 -35 23 -39 23 -5 0 -34 16 -64 35 -30 19
-59 35 -66 35 -6 0 -26 -16 -44 -36z m119 -55 c-24 -42 -89 -89 -122 -88 -23
0 -22 2 14 19 22 10 58 36 80 59 21 23 41 41 43 41 2 0 -5 -14 -15 -31z m-53
1 c0 -5 -13 -10 -30 -10 -16 0 -30 5 -30 10 0 6 14 10 30 10 17 0 30 -4 30
-10z m76 -98 c-10 -19 -28 -32 -56 -41 -23 -7 -44 -10 -46 -8 -3 2 15 10 40
17 29 8 47 20 55 36 6 13 13 24 16 24 3 0 -1 -13 -9 -28z"/>
<path d="M2516 821 c-10 -11 -16 -26 -13 -33 3 -8 6 -6 6 5 1 12 6 16 14 11 6
-4 9 -4 5 1 -4 4 -3 14 3 22 18 20 4 15 -15 -6z"/>
<path d="M2100 740 c0 -5 20 -10 45 -10 25 0 45 5 45 10 0 6 -20 10 -45 10
-25 0 -45 -4 -45 -10z"/>
<path d="M2857 1103 c-6 -6 16 -53 26 -53 11 0 8 14 -5 29 -11 11 -9 13 10 8
12 -3 20 -2 17 3 -6 9 -42 20 -48 13z"/>
<path d="M1480 855 l0 -88 53 7 c28 3 77 7 107 7 52 2 53 2 15 8 l-40 6 -3 63
c-3 61 -2 62 23 62 24 0 25 -3 27 -57 l2 -58 3 50 c3 27 9 55 15 62 8 10 -1
13 -43 13 -30 0 -78 3 -106 6 l-53 7 0 -88z m17 -37 c-2 -24 -4 -7 -4 37 0 44
2 63 4 43 2 -21 2 -57 0 -80z m53 36 c0 -66 -2 -75 -17 -72 -14 3 -19 15 -21
62 -4 68 1 86 23 86 12 0 15 -14 15 -76z m48 4 c-2 -48 -7 -63 -18 -63 -11 0
-16 13 -18 49 -4 58 2 76 23 76 13 0 15 -11 13 -62z"/>
<path d="M1588 723 c7 -3 16 -2 19 1 4 3 -2 6 -13 5 -11 0 -14 -3 -6 -6z"/>
<path d="M2810 880 c0 -5 4 -10 9 -10 6 0 13 5 16 10 3 6 -1 10 -9 10 -9 0
-16 -4 -16 -10z"/>
<path d="M1095 855 c0 -13 3 -21 8 -18 4 2 7 10 7 18 0 8 -3 16 -7 18 -5 3 -8
-5 -8 -18z"/>
<path d="M917 840 c-3 -13 1 -21 15 -26 25 -7 42 14 26 33 -15 19 -35 16 -41
-7z"/>
<path d="M1091 744 c0 -11 3 -14 6 -6 3 7 2 16 -1 19 -3 4 -6 -2 -5 -13z"/>
<path d="M1066 701 c-4 -5 -2 -12 3 -15 5 -4 12 -2 15 3 4 5 2 12 -3 15 -5 4
-12 2 -15 -3z"/>
<path d="M2564 745 c-8 -21 3 -34 26 -28 27 7 27 43 0 43 -11 0 -23 -7 -26
-15z"/>
<path d="M2595 701 c-6 -11 9 -23 19 -14 9 9 7 23 -3 23 -6 0 -12 -4 -16 -9z"/>
<path d="M3017 723 c-11 -10 -8 -38 4 -50 17 -17 49 -3 49 22 0 27 -36 46 -53
28z"/>
<path d="M3065 650 c3 -5 10 -10 16 -10 5 0 9 5 9 10 0 6 -7 10 -16 10 -8 0
-12 -4 -9 -10z"/>
<path d="M626 664 c-4 -11 -1 -14 11 -12 9 2 18 9 21 16 6 18 -25 15 -32 -4z"/>
<path d="M700 631 c0 -5 10 -17 23 -26 l22 -17 -25 8 c-22 6 -23 5 -11 -10 23
-28 43 -20 39 17 -2 24 -8 33 -25 35 -13 2 -23 -1 -23 -7z"/>
<path d="M2450 691 c0 -5 -2 -16 -5 -23 -3 -8 6 -27 20 -42 21 -23 28 -26 41
-16 16 14 11 45 -14 73 -16 18 -42 23 -42 8z"/>
<path d="M2907 643 c-12 -11 -7 -42 7 -50 8 -4 14 -17 13 -28 -3 -26 47 -34
57 -9 8 20 -12 47 -30 40 -8 -3 -11 0 -7 10 9 24 -23 54 -40 37z"/>
<path d="M1370 600 c-8 -14 -8 -26 -2 -32 6 -6 12 0 16 17 9 35 1 43 -14 15z"/>
<path d="M2783 544 c-9 -23 13 -40 32 -24 8 7 15 19 15 26 0 19 -39 18 -47 -2z"/>
<path d="M2807 503 c-12 -11 -7 -31 9 -37 22 -8 54 11 48 29 -6 15 -45 21 -57
8z"/>
<path d="M1830 524 c0 -22 4 -25 28 -22 19 2 28 9 30 26 3 19 -1 22 -27 22
-27 0 -31 -4 -31 -26z"/>
<path d="M927 484 c-10 -11 -9 -52 3 -59 18 -11 51 15 48 38 -3 22 -36 35 -51
21z"/>
<path d="M1095 391 c-3 -6 3 -15 12 -21 17 -11 17 -11 1 -6 -12 3 -18 0 -18
-9 0 -8 6 -15 13 -15 19 0 50 37 42 49 -8 14 -42 14 -50 2z"/>
<path d="M1327 314 c-13 -13 -7 -55 8 -60 21 -9 47 15 43 40 -3 21 -37 34 -51
20z"/>
<path d="M2307 304 c-11 -11 -8 -44 3 -44 15 0 24 30 13 41 -5 5 -12 6 -16 3z"/>
<path d="M2422 348 c-22 -22 -14 -41 16 -34 15 3 21 3 15 0 -7 -3 -13 -13 -13
-22 1 -15 2 -15 15 1 10 15 11 25 3 43 -13 27 -19 29 -36 12z"/>
<path d="M1487 283 c-4 -3 -7 -19 -7 -35 0 -21 5 -28 20 -28 26 0 46 36 29 56
-12 15 -31 18 -42 7z"/>
<path d="M2280 3510 c0 -5 5 -10 10 -10 6 0 10 5 10 10 0 6 -4 10 -10 10 -5 0
-10 -4 -10 -10z"/>
<path d="M354 2758 c3 -13 6 -25 6 -28 0 -4 17 -12 38 -19 20 -7 52 -20 70
-29 29 -13 35 -13 43 -1 13 21 11 27 -13 35 -13 4 -25 9 -28 13 -7 9 -99 51
-111 51 -7 0 -9 -9 -5 -22z"/>
</g>
</svg>
